<?xml version="1.0" encoding="UTF-8"?>
<svg version="1.1" xmlns="http://www.w3.org/2000/svg" width="1280" height="899">
<path d="M0 0 C422.4 0 844.8 0 1280 0 C1280 296.67 1280 593.34 1280 899 C857.6 899 435.2 899 0 899 C0 602.33 0 305.66 0 0 Z " fill="#000000" transform="translate(0,0)"/>
<path d="M0 0 C12.27791399 -0.08382503 24.55567871 -0.1491237 36.83383179 -0.18435669 C40.53879078 -0.19535293 44.24361835 -0.2131263 47.94851685 -0.23690796 C52.29102141 -0.26427377 56.63331612 -0.27653545 60.97590446 -0.27732277 C62.53839774 -0.27991216 64.10089353 -0.28744533 65.66333199 -0.30078697 C79.34407913 -0.41163096 92.71892213 1.01150321 105.49188232 6.29681396 C106.24405029 6.60127441 106.99621826 6.90573486 107.7711792 7.21942139 C126.8447736 15.18383607 138.62261941 28.98510547 146.89422607 47.66790771 C153.98130008 66.30109621 153.75755036 87.04124414 146.32781982 105.50384521 C142.17969249 114.68898431 137.31780032 121.89610953 130.17938232 129.04681396 C129.56449951 129.67329834 128.9496167 130.29978271 128.31610107 130.94525146 C118.82700912 139.92636205 106.83637003 144.95186668 94.66864014 149.1696167 C89.9880876 150.74408679 89.9880876 150.74408679 86.85125732 154.28900146 C87.33727202 158.37383927 89.18875796 161.50212917 91.24188232 164.98431396 C91.91428955 166.15752197 91.91428955 166.15752197 92.60028076 167.35443115 C97.9008009 176.48769029 103.63041941 185.35637551 109.36053467 194.22357178 C111.75478705 197.93996567 114.12196674 201.67321394 116.4887085 205.40716553 C150.29277303 264.15507594 150.29277303 264.15507594 206.86175537 296.07366943 C208.84018665 296.50860607 210.82081583 296.93368123 212.8036499 297.3480835 C213.71525879 297.54128174 214.62686768 297.73447998 215.56610107 297.93353271 C216.38296387 298.10070801 217.19982666 298.2678833 218.04144287 298.44012451 C220.17938232 299.04681396 220.17938232 299.04681396 223.17938232 301.04681396 C223.87469482 302.85150146 223.87469482 302.85150146 224.30438232 304.92181396 C224.45133545 305.59986084 224.59828857 306.27790771 224.74969482 306.97650146 C224.8914917 307.65970459 225.03328857 308.34290771 225.17938232 309.04681396 C225.50727963 310.38149454 225.83902878 311.71525535 226.17938232 313.04681396 C214.48211774 313.76297302 203.63821439 310.85230527 193.36663818 305.47235107 C186.45842401 301.91077003 179.53658826 301.909423 171.94891357 301.87103271 C170.1578863 301.8478261 168.36687065 301.82370842 166.5758667 301.79876709 C163.78957397 301.76380702 161.00370864 301.7343712 158.21722412 301.72088623 C143.38242304 301.63530337 130.39050361 300.96342243 119.17938232 290.04681396 C113.48321125 284.1347166 109.13598866 277.62072819 104.80438232 270.67181396 C103.74648315 268.99789481 102.68855444 267.32399356 101.6289978 265.65112305 C100.899261 264.49886404 100.17024214 263.34615006 99.44192505 262.19299316 C85.76450964 240.55107461 71.43925473 219.30766445 57.17938232 198.04681396 C56.78480835 197.45807495 56.39023437 196.86933594 55.98370361 196.26275635 C53.55729659 192.64341537 51.12148415 189.03058037 48.67938232 185.42181396 C48.09914307 184.55846436 47.51890381 183.69511475 46.92108154 182.80560303 C40.4576547 172.91677788 40.4576547 172.91677788 31.05438232 166.17181396 C30.2268042 165.78251709 29.39922607 165.39322021 28.54656982 164.99212646 C24.90924366 163.53959688 21.76778672 162.9211825 17.85125732 162.94915771 C17.13034912 162.95165527 16.40944092 162.95415283 15.66668701 162.95672607 C14.76337646 162.96583008 13.86006592 162.97493408 12.92938232 162.98431396 C8.59813232 163.01525146 8.59813232 163.01525146 4.17938232 163.04681396 C4.17938232 156.44681396 4.17938232 149.84681396 4.17938232 143.04681396 C7.15840576 143.00943115 10.1374292 142.97204834 13.20672607 142.93353271 C16.15267503 142.88707255 19.09850904 142.83592894 22.04437256 142.78436279 C24.0622027 142.75149389 26.08011641 142.7233493 28.0980835 142.70037842 C50.11890451 142.44311305 71.42628874 141.34456515 88.07781982 125.20697021 C92.87720362 120.0827373 96.19885761 114.37720794 99.17938232 108.04681396 C99.59574951 107.1895874 100.0121167 106.33236084 100.44110107 105.44915771 C106.76358377 90.03117359 104.01293289 71.31130349 98.08172607 56.26165771 C90.74349407 40.16729803 77.99125325 30.73733091 62.17938232 24.04681396 C48.12759333 18.8557072 34.94642379 18.81350569 20.17938232 19.04681396 C19.46717529 19.05406494 18.75496826 19.06131592 18.0211792 19.06878662 C9.34295663 19.20115868 3.63562634 20.59056995 -2.56671143 26.79290771 C-6.20290918 30.8476606 -9.06803753 34.47211768 -9.07509327 40.1030674 C-9.08384156 41.30753468 -9.08384156 41.30753468 -9.09276658 42.53633463 C-9.0870976 43.85100295 -9.0870976 43.85100295 -9.08131409 45.19223022 C-9.08513963 46.12780931 -9.08896518 47.06338839 -9.09290665 48.02731836 C-9.10324573 51.17010411 -9.09924269 54.31270747 -9.09527588 57.45550537 C-9.09962198 59.70585296 -9.10480479 61.95619907 -9.11076355 64.20654297 C-9.12417923 70.32663369 -9.1247291 76.44666275 -9.12220025 82.56676531 C-9.12113176 87.67586337 -9.12601106 92.7849489 -9.13080567 97.89404428 C-9.14254624 110.64118502 -9.14167084 123.38828112 -9.13524886 136.13542144 C-9.13008577 147.19267349 -9.14131824 158.24983728 -9.16034708 169.30707188 C-9.17974874 180.66840239 -9.18768601 192.02967904 -9.18422383 203.39103067 C-9.1824118 209.76628915 -9.18503883 216.14146689 -9.19893837 222.51671219 C-9.21152928 228.51672727 -9.20956045 234.51656624 -9.19652748 240.51657867 C-9.1941645 242.71513555 -9.19688637 244.91370486 -9.2051506 247.11224747 C-9.21564372 250.12153317 -9.20749642 253.13023082 -9.19483948 256.13949585 C-9.2059009 257.43408767 -9.2059009 257.43408767 -9.2171858 258.75483286 C-9.12293705 269.46098515 -5.99574728 277.96893049 1.66766357 285.51165771 C8.85609741 291.380131 19.13045207 293.33709394 28.17938232 294.04681396 C28.17938232 297.01681396 28.17938232 299.98681396 28.17938232 303.04681396 C8.31727009 303.94012126 -11.53033323 304.32894132 -31.40856934 304.57904053 C-34.53575912 304.61933371 -37.66289095 304.66340516 -40.79002953 304.70746803 C-59.46814677 304.9692722 -78.1403622 305.11484983 -96.82061768 305.04681396 C-96.82061768 302.40681396 -96.82061768 299.76681396 -96.82061768 297.04681396 C-93.06929575 295.36877347 -89.70413117 294.65775711 -85.63311768 294.17181396 C-75.91659049 292.73517168 -67.17933431 289.93053331 -60.82061768 282.04681396 C-56.68878942 274.74635053 -53.73038437 267.74461766 -53.66239929 259.2989502 C-53.6526089 258.36911662 -53.64281851 257.43928305 -53.63273144 256.4812727 C-53.62697755 255.47003999 -53.62122366 254.45880728 -53.61529541 253.41693115 C-53.60540998 252.33825681 -53.59552454 251.25958246 -53.58533955 250.14822102 C-53.55361911 246.5467328 -53.5288644 242.94523198 -53.50421143 239.34368896 C-53.48334118 236.78911557 -53.46211382 234.23454507 -53.44055176 231.67997742 C-53.37834758 224.09754212 -53.32457523 216.51506459 -53.27279997 208.93255186 C-53.2532812 206.09328264 -53.2331637 203.2540178 -53.21304411 200.41475278 C-53.10181129 184.69996952 -53.00050907 168.98514267 -52.9077822 153.27023971 C-52.85143604 143.73719777 -52.78646688 134.20425473 -52.7131958 124.67132568 C-52.64077517 115.20813019 -52.58251048 105.74500021 -52.54580021 96.28159523 C-52.52740871 91.57449915 -52.5029024 86.86766019 -52.4614563 82.16070557 C-52.42348079 77.80176706 -52.40503228 73.44317642 -52.4016037 69.08407784 C-52.39721707 67.52801551 -52.38619097 65.97195213 -52.36728668 64.41599846 C-52.21199179 51.07512837 -53.10556365 35.21930327 -62.82061768 25.04681396 C-70.61111342 18.06060017 -80.47416053 15.92255812 -90.45343018 13.86712646 C-91.45938232 13.65837891 -92.46533447 13.44963135 -93.50177002 13.23455811 C-95.50150914 12.82713313 -97.50442527 12.43491326 -99.51055908 12.0602417 C-106.03503229 10.75389742 -111.20923124 8.62664165 -116.82061768 5.04681396 C-116.82061768 4.05681396 -116.82061768 3.06681396 -116.82061768 2.04681396 C-113.48403454 0.3785224 -109.73100816 0.86587761 -106.06011963 0.8414917 C-105.14447865 0.83160343 -104.22883766 0.82171516 -103.28544998 0.81152725 C-100.20995985 0.77966113 -97.13445539 0.75497915 -94.05889893 0.73040771 C-91.8764361 0.70957757 -89.69397661 0.68839604 -87.51152039 0.66688538 C-81.61165761 0.610421 -75.71175729 0.56092787 -69.81181335 0.51377869 C-66.14396443 0.48440084 -62.47612629 0.45389908 -58.80828857 0.42315674 C-42.6673724 0.28906795 -26.52636538 0.17439087 -10.38523102 0.07012177 C-6.92348189 0.04748656 -3.46174066 0.02389169 0 0 Z " fill="#98989A" transform="translate(660.8206176757813,286.95318603515625)"/>
<path d="M0 0 C1.010625 0.0825 2.02125 0.165 3.0625 0.25 C5.47410147 3.8674022 5.50055378 6.67843612 5.6640625 10.87890625 C5.70077057 11.69541153 5.73747864 12.51191681 5.77529907 13.35316467 C6.27557085 25.83075906 6.36056627 38.32127743 6.41259766 50.80737305 C6.4261175 53.75461616 6.45435948 56.70119622 6.49462891 59.64819336 C6.54384383 63.25578495 6.56869451 66.86276173 6.57582474 70.47067451 C6.58575083 72.48938017 6.61995989 74.50791965 6.65463257 76.52635193 C6.65178253 77.74605179 6.6489325 78.96575165 6.64599609 80.22241211 C6.65408295 81.2931749 6.6621698 82.36393768 6.67050171 83.46714783 C6.0625 86.25 6.0625 86.25 3.73306274 88.61109924 C0.5813366 90.54528573 -1.30398083 90.58800178 -4.9375 90.25 C-5.43378906 89.24582031 -5.93007813 88.24164063 -6.44140625 87.20703125 C-8.23337221 83.59108406 -10.04525637 79.98546748 -11.86474609 76.38330078 C-12.81225807 74.49905872 -13.74514829 72.60747932 -14.67578125 70.71484375 C-23.48799053 53.40589808 -36.60586127 40.98893575 -54.9375 34.25 C-79.45001347 27.13076203 -105.74022535 28.63416999 -128.33764648 40.90698242 C-153.74407176 55.34566045 -170.42906039 79.24599433 -178.34863281 107.04736328 C-181.71763498 119.64899576 -182.70264354 132.67295771 -183.84838867 145.6262207 C-183.96158447 146.84140381 -184.07478027 148.05658691 -184.19140625 149.30859375 C-184.28752197 150.40486084 -184.3836377 151.50112793 -184.48266602 152.63061523 C-184.9375 155.25 -184.9375 155.25 -186.9375 157.25 C-189.07620239 157.49050903 -189.07620239 157.49050903 -191.75439453 157.47705078 C-192.75528107 157.47689972 -193.7561676 157.47674866 -194.78738403 157.47659302 C-196.41243362 157.46110916 -196.41243362 157.46110916 -198.0703125 157.4453125 C-199.17728485 157.4424826 -200.2842572 157.43965271 -201.42477417 157.43673706 C-204.97079137 157.42551519 -208.51655875 157.40040691 -212.0625 157.375 C-214.46223594 157.3649728 -216.86197583 157.3558465 -219.26171875 157.34765625 C-225.15373151 157.32556932 -231.04559791 157.29207207 -236.9375 157.25 C-235.92262136 152.16475249 -234.89231197 147.08293322 -233.84912109 142.00341797 C-233.49811873 140.28417711 -233.15095493 138.56414696 -232.80810547 136.84326172 C-229.59376322 120.73384558 -225.34636716 105.16970614 -218.0625 90.375 C-217.63469238 89.49352295 -217.20688477 88.6120459 -216.76611328 87.70385742 C-207.24168127 68.45841252 -193.0351689 51.21986757 -175.9375 38.25 C-175.41704102 37.8492627 -174.89658203 37.44852539 -174.36035156 37.03564453 C-154.64133719 21.9428783 -132.54099479 12.7764105 -107.9375 9.25 C-106.77798828 9.07726562 -105.61847656 8.90453125 -104.42382812 8.7265625 C-99.15815029 8.07656265 -93.9122107 8.10661809 -88.61328125 8.1171875 C-87.01663887 8.11575241 -87.01663887 8.11575241 -85.38774109 8.11428833 C-83.14968812 8.11361091 -80.91163313 8.11543448 -78.67358398 8.11962891 C-75.25044355 8.1249993 -71.82743336 8.11966083 -68.40429688 8.11328125 C-66.22395804 8.1139418 -64.04361929 8.11522248 -61.86328125 8.1171875 C-60.84236893 8.11516327 -59.8214566 8.11313904 -58.76960754 8.11105347 C-57.33738106 8.11578171 -57.33738106 8.11578171 -55.8762207 8.12060547 C-54.62335014 8.12179886 -54.62335014 8.12179886 -53.34516907 8.12301636 C-50.79310876 8.25761538 -48.43454526 8.72068479 -45.9375 9.25 C-41.52360706 9.51909455 -37.10874511 9.52703547 -32.6875 9.5625 C-30.90279297 9.60600586 -30.90279297 9.60600586 -29.08203125 9.65039062 C-18.88336163 9.72364074 -12.09059939 7.16099706 -3.9375 1.25 C-2.9375 0.25 -2.9375 0.25 0 0 Z " fill="#2354A0" transform="translate(656.9375,96.75)"/>
<path d="M0 0 C3.75671609 0.90451688 5.57626487 2.7564453 8.22265625 5.53515625 C9.83230412 8.75445198 9.82951867 12.05403337 9.22265625 15.53515625 C6.68811968 18.7547027 5.1096832 20.2394806 1.22265625 21.53515625 C0.72024303 23.86475095 0.72024303 23.86475095 1.22265625 26.53515625 C9.71824725 34.11230498 21.76000695 35.69751788 32.6796875 35.6328125 C33.5826506 35.63139755 34.48561371 35.6299826 35.41593933 35.62852478 C38.28904588 35.62294448 41.16207341 35.61039559 44.03515625 35.59765625 C45.98762908 35.5926387 47.94010314 35.58807624 49.89257812 35.58398438 C54.6693011 35.5729815 59.44596529 35.55573043 64.22265625 35.53515625 C65.57705293 38.2439496 65.28767076 40.54448893 65.22265625 43.53515625 C62.25265625 43.53515625 59.28265625 43.53515625 56.22265625 43.53515625 C59.91819881 54.32120975 63.88911347 64.93961088 68.2722168 75.46508789 C69.16078312 77.59916182 70.04282562 79.73584075 70.92382812 81.87304688 C73.90115586 89.07699627 76.93668125 96.25523753 80.0390625 103.40625 C80.32885483 104.07882339 80.61864716 104.75139679 80.91722107 105.4443512 C82.18119188 108.33745444 83.46517508 110.8989345 85.22265625 113.53515625 C85.97614601 119.04561749 83.23031854 121.99061533 80.07421875 126.234375 C75.23473499 132.24799512 68.90911669 135.82623413 61.19775391 136.78759766 C49.68198725 137.69264463 39.34010543 136.65383822 30.16015625 128.97265625 C29.52078125 128.16828125 28.88140625 127.36390625 28.22265625 126.53515625 C27.64515625 125.83390625 27.06765625 125.13265625 26.47265625 124.41015625 C23.4297487 119.84579492 23.78241 114.80582968 24.22265625 109.53515625 C24.99258848 106.19188901 26.12304725 103.0489163 27.34765625 99.84765625 C27.66605469 98.97753906 27.98445312 98.10742188 28.3125 97.2109375 C30.63844266 90.90957889 33.14190238 84.68343784 35.6796875 78.46484375 C39.99438043 67.67388961 43.5710445 56.56431194 47.22265625 45.53515625 C45.42828125 45.78265625 45.42828125 45.78265625 43.59765625 46.03515625 C30.51235062 47.43201776 19.24279613 46.38679151 7.02832031 41.46972656 C6.12825256 41.10792297 5.22818481 40.74611938 4.30084229 40.37335205 C3.61504089 40.09674744 2.9292395 39.82014282 2.22265625 39.53515625 C2.23646695 54.1823391 2.27871637 68.82920962 2.35474682 83.47620678 C2.38938813 90.2772244 2.41475117 97.07803953 2.41821289 103.87915039 C2.42157897 110.44102815 2.45087914 117.00245817 2.49608803 123.56420326 C2.50909058 126.06922758 2.51336103 128.57431275 2.50881004 131.07936668 C2.50392402 134.58496658 2.52991092 138.0890667 2.56323242 141.59448242 C2.55029396 143.15246803 2.55029396 143.15246803 2.53709412 144.7419281 C2.62579137 150.62858646 2.62579137 150.62858646 5.59126282 155.62666321 C8.3111759 157.59935765 10.78447993 158.93325527 13.91015625 160.16015625 C14.95300781 160.57265625 15.99585938 160.98515625 17.0703125 161.41015625 C20.75639792 162.72563655 24.46488741 163.81558278 28.26171875 164.76171875 C30.22265625 165.53515625 30.22265625 165.53515625 32.22265625 168.53515625 C32.22265625 170.84515625 32.22265625 173.15515625 32.22265625 175.53515625 C8.46265625 175.53515625 -15.29734375 175.53515625 -39.77734375 175.53515625 C-39.77734375 169.53515625 -39.77734375 169.53515625 -37.76171875 167.34375 C-34.32033714 165.25820067 -30.81637791 163.88561601 -27.02734375 162.59765625 C-17.1866765 159.33391198 -17.1866765 159.33391198 -8.77734375 153.53515625 C-8.68172765 152.0803413 -8.65546024 150.62090139 -8.65708923 149.16294861 C-8.65571457 148.21918869 -8.6543399 147.27542877 -8.65292358 146.30307007 C-8.65651886 145.25938263 -8.66011414 144.21569519 -8.66381836 143.14038086 C-8.66367233 142.04783493 -8.66352631 140.955289 -8.66337585 139.82963562 C-8.66407553 136.19890392 -8.67187046 132.56822279 -8.6796875 128.9375 C-8.68155149 126.42786182 -8.68297548 123.91822327 -8.68397522 121.40858459 C-8.68741027 115.46581032 -8.69530102 109.52305241 -8.70532471 103.58028656 C-8.71758122 96.153137 -8.72296583 88.7259852 -8.72851562 81.29882812 C-8.73925564 68.04426152 -8.75614293 54.78971004 -8.77734375 41.53515625 C-14.33913408 41.41860997 -14.33913408 41.41860997 -19.71484375 42.59375 C-20.38257813 42.81482422 -21.0503125 43.03589844 -21.73828125 43.26367188 C-22.41117188 43.49763672 -23.0840625 43.73160156 -23.77734375 43.97265625 C-25.12967463 44.43509123 -26.48384403 44.89218639 -27.83984375 45.34375 C-28.42894531 45.54798584 -29.01804687 45.75222168 -29.625 45.96264648 C-35.6250525 47.55862234 -41.55993387 47.66621994 -47.71484375 47.59765625 C-48.49408203 47.59314453 -49.27332031 47.58863281 -50.07617188 47.58398438 C-51.97659643 47.57232533 -53.87698081 47.55439502 -55.77734375 47.53515625 C-53.83461321 52.63686787 -51.88748593 57.73687366 -49.93582153 62.83517456 C-49.24831893 64.63128908 -48.56136579 66.42761402 -47.87496948 68.22415161 C-43.36320533 80.02214404 -38.7781484 91.76133884 -33.57275391 103.27539062 C-31.21803923 108.66743404 -30.08464836 112.63788468 -30.77734375 118.53515625 C-34.11058999 126.32744713 -40.23423115 131.08421138 -47.77734375 134.53515625 C-57.68055825 138.38273358 -68.96576326 137.31502742 -78.77734375 133.53515625 C-85.24571064 130.12029217 -91.24844874 125.6559922 -93.77734375 118.53515625 C-94.26627237 113.69872717 -93.2244566 110.63855238 -91.02734375 106.34765625 C-90.516875 105.32285156 -90.00640625 104.29804688 -89.48046875 103.2421875 C-87.79369267 100.56114203 -86.48424446 99.13618899 -83.77734375 97.53515625 C-83.11734375 97.53515625 -82.45734375 97.53515625 -81.77734375 97.53515625 C-80.56350454 99.96283466 -80.78531551 101.11258005 -81.08984375 103.78515625 C-81.16847656 104.5328125 -81.24710938 105.28046875 -81.328125 106.05078125 C-81.77734375 108.53515625 -81.77734375 108.53515625 -83.77734375 114.53515625 C-68.92734375 114.53515625 -54.07734375 114.53515625 -38.77734375 114.53515625 C-40.13730469 110.98378906 -41.49726562 107.43242187 -42.8984375 103.7734375 C-44.21327043 100.33182303 -45.52674447 96.88969288 -46.84008789 93.44750977 C-47.75338057 91.05601615 -48.66808441 88.66506094 -49.58422852 86.2746582 C-50.90101781 82.83815931 -52.21271583 79.39975448 -53.5234375 75.9609375 C-54.13909828 74.35911369 -54.13909828 74.35911369 -54.76719666 72.72492981 C-55.14751541 71.72426987 -55.52783417 70.72360992 -55.91967773 69.69262695 C-56.25499008 68.81548538 -56.59030243 67.93834381 -56.93577576 67.03462219 C-57.77318479 64.5475084 -58.3221701 62.11713916 -58.77734375 59.53515625 C-59.43734375 59.53515625 -60.09734375 59.53515625 -60.77734375 59.53515625 C-60.92171875 60.31890625 -61.06609375 61.10265625 -61.21484375 61.91015625 C-61.77734375 64.53515625 -61.77734375 64.53515625 -62.77734375 66.53515625 C-63.76734375 66.53515625 -64.75734375 66.53515625 -65.77734375 66.53515625 C-65.66222222 64.80530383 -65.53478698 63.07626874 -65.40234375 61.34765625 C-65.33273437 60.38472656 -65.263125 59.42179687 -65.19140625 58.4296875 C-64.77414468 55.51279292 -63.91679864 53.23676705 -62.77734375 50.53515625 C-62.45135815 47.91399114 -62.45135815 47.91399114 -63.77734375 45.53515625 C-66.3187792 43.887236 -68.97683122 42.67705088 -71.77734375 41.53515625 C-71.02734375 36.78515625 -71.02734375 36.78515625 -68.77734375 34.53515625 C-65.63209573 34.35712334 -62.76172541 34.30191657 -59.68359375 35.03125 C-44.10621781 37.73216599 -20.60215512 37.03194701 -6.77734375 28.53515625 C-4.74025074 26.63790944 -3.35845868 24.85412482 -1.77734375 22.53515625 C-2.41542969 22.12523438 -3.05351563 21.7153125 -3.7109375 21.29296875 C-4.53722656 20.75414063 -5.36351562 20.2153125 -6.21484375 19.66015625 C-7.03855469 19.12648438 -7.86226562 18.5928125 -8.7109375 18.04296875 C-10.77734375 16.53515625 -10.77734375 16.53515625 -11.77734375 14.53515625 C-12.22585517 10.05004205 -12.46556587 6.82485828 -9.83984375 3.03515625 C-6.26621878 0.11791137 -4.4936443 -0.2925745 0 0 Z " fill="#9C9D9F" transform="translate(738.77734375,93.46484375)"/>
<path d="M0 0 C16.17 0 32.34 0 49 0 C51.3125 11.8125 51.3125 11.8125 52.02075195 15.46411133 C59.45030333 52.991458 77.00976371 83.79931107 108.88232422 105.62304688 C127.88684835 117.98015041 147.6613536 122.86892823 170 125 C170.24798276 127.95786664 170.47411854 130.91461298 170.6875 133.875 C170.76033203 134.71675781 170.83316406 135.55851563 170.90820312 136.42578125 C170.96298828 137.23144531 171.01777344 138.03710938 171.07421875 138.8671875 C171.13182373 139.61081543 171.18942871 140.35444336 171.2487793 141.12060547 C171.16668213 141.74080566 171.08458496 142.36100586 171 143 C167.37210892 145.41859406 165.65757609 145.25757757 161.33984375 145.265625 C160.68257797 145.26853546 160.02531219 145.27144592 159.34812927 145.27444458 C157.21102014 145.27893883 155.07454571 145.26637971 152.9375 145.25 C151.84480804 145.24435028 151.84480804 145.24435028 150.7300415 145.23858643 C114.21331284 145.01610146 79.8383963 135.63251684 52 111 C50.51886719 109.71802734 50.51886719 109.71802734 49.0078125 108.41015625 C19.47326919 82.45455999 3.48231668 44.69864823 0 6 C0 4.02 0 2.04 0 0 Z " fill="#1F62AC" transform="translate(422,266)"/>
<path d="M0 0 C2.26952991 2.26952991 2.91291576 3.96906014 4.06298828 6.95288086 C4.66338425 8.49974831 4.66338425 8.49974831 5.27590942 10.0778656 C5.70306244 11.19556839 6.13021545 12.31327118 6.5703125 13.46484375 C7.0114035 14.60909317 7.45249451 15.75334259 7.9069519 16.93226624 C8.83919483 19.35479529 9.76873751 21.77836491 10.69580078 24.20288086 C12.11887306 27.92148979 13.55294903 31.63571802 14.98828125 35.34960938 C15.89128996 37.7002655 16.79365541 40.05116885 17.6953125 42.40234375 C18.12651398 43.51802231 18.55771545 44.63370087 19.00198364 45.78318787 C19.3959433 46.81758499 19.78990295 47.85198212 20.19580078 48.91772461 C20.54506622 49.82880478 20.89433167 50.73988495 21.25418091 51.67857361 C22 54 22 54 22 57 C8.14 57 -5.72 57 -20 57 C-19.27192441 52.63154646 -18.46471915 49.29704987 -16.8828125 45.2578125 C-15.90157296 42.74827066 -14.97928243 40.22128452 -14.0625 37.6875 C-13.72347656 36.75292969 -13.38445313 35.81835938 -13.03515625 34.85546875 C-12.52275391 33.44201172 -12.52275391 33.44201172 -12 32 C-11.00073003 29.25103552 -10.00083769 26.50230036 -9 23.75390625 C-8.32999037 21.90876256 -7.66335476 20.0623904 -7 18.21484375 C-4.79427566 12.08878903 -2.4586793 6.02899553 0 0 Z " fill="#040404" transform="translate(791,151)"/>
<path d="M0 0 C4.40288383 1.84040544 7.22303191 4.99505724 9.8125 8.9375 C11.64791691 14.44375073 11.95662545 20.8749918 9.90625 26.36328125 C6.98610032 31.33315138 3.31962383 34.57990368 -2.125 36.6875 C-8.31187642 37.43742441 -12.64399689 36.91456648 -18.1875 33.9375 C-23.34233882 29.7199046 -25.76833513 25.17105756 -26.625 18.5625 C-25.75263385 11.3343233 -22.84916126 5.60837054 -17.1875 0.9375 C-11.79582662 -2.22620917 -5.85754716 -1.82134864 0 0 Z " fill="#020202" transform="translate(764.1875,630.0625)"/>
<path d="M0 0 C4.40288383 1.84040544 7.22303191 4.99505724 9.8125 8.9375 C11.64791691 14.44375073 11.95662545 20.8749918 9.90625 26.36328125 C6.98610032 31.33315138 3.31962383 34.57990368 -2.125 36.6875 C-8.31187642 37.43742441 -12.64399689 36.91456648 -18.1875 33.9375 C-23.34233882 29.7199046 -25.76833513 25.17105756 -26.625 18.5625 C-25.75263385 11.3343233 -22.84916126 5.60837054 -17.1875 0.9375 C-11.79582662 -2.22620917 -5.85754716 -1.82134864 0 0 Z " fill="#020202" transform="translate(677.1875,630.0625)"/>
<path d="M0 0 C4.40288383 1.84040544 7.22303191 4.99505724 9.8125 8.9375 C11.64791691 14.44375073 11.95662545 20.8749918 9.90625 26.36328125 C6.98610032 31.33315138 3.31962383 34.57990368 -2.125 36.6875 C-8.31187642 37.43742441 -12.64399689 36.91456648 -18.1875 33.9375 C-23.34233882 29.7199046 -25.76833513 25.17105756 -26.625 18.5625 C-25.75263385 11.3343233 -22.84916126 5.60837054 -17.1875 0.9375 C-11.79582662 -2.22620917 -5.85754716 -1.82134864 0 0 Z " fill="#020202" transform="translate(409.1875,630.0625)"/>
<path d="M0 0 C20.60655738 0 20.60655738 0 25.6171875 4.4296875 C30.35611469 9.81118109 30.41241668 14.88624007 30.3359375 21.76171875 C29.75971743 27.31621217 27.57190097 29.78604401 23.484375 33.3046875 C16.24105941 38.03568192 8.77732247 36 0 36 C0 24.12 0 12.24 0 0 Z " fill="#939395" transform="translate(783,630)"/>
<path d="M0 0 C17 0 17 0 23 4 C24.41000664 6.82001327 24.24548451 8.87007255 24 12 C22.5 14.875 22.5 14.875 21 17 C21.66 17.495 22.32 17.99 23 18.5 C25.31688498 21.39610623 25.58846832 23.35391712 25.3828125 27.03515625 C24.75554392 30.25470825 23.41478784 31.83940035 21 34 C15 36 15 36 0 36 C0 24.12 0 12.24 0 0 Z " fill="#949496" transform="translate(532,630)"/>
<path d="M0 0 C0.14288264 5.78408689 0.28528698 11.56818529 0.42724609 17.35229492 C0.47561677 19.32039713 0.52411865 21.28849611 0.57275391 23.2565918 C0.64259704 26.08381326 0.71196989 28.91104594 0.78125 31.73828125 C0.80312378 32.61962234 0.82499756 33.50096344 0.84753418 34.40901184 C0.86755493 35.22963608 0.88757568 36.05026031 0.90820312 36.89575195 C0.92596802 37.61745071 0.94373291 38.33914948 0.96203613 39.0827179 C0.99448624 40.72153954 1 42.36085712 1 44 C-1.875 44.125 -1.875 44.125 -5 44 C-5.66 43.34 -6.32 42.68 -7 42 C-7.99 42.66 -8.98 43.32 -10 44 C-13.06594015 44.54543879 -15.93218522 44.53376742 -19 44 C-23.06893934 40.88336561 -25.61793717 37.58998381 -26.37109375 32.484375 C-26.53506417 25.73265183 -25.54322396 21.14898716 -21 16 C-18.6603331 14.83016655 -17.16608473 14.8338759 -14.5625 14.8125 C-13.78003906 14.79832031 -12.99757813 14.78414062 -12.19140625 14.76953125 C-10 15 -10 15 -7 17 C-6.97287934 15.56260487 -6.95354933 14.12506137 -6.9375 12.6875 C-6.92589844 11.88699219 -6.91429687 11.08648438 -6.90234375 10.26171875 C-6.90342145 7.83138666 -6.90342145 7.83138666 -8 5 C-6.8562364 4.16382818 -5.70992861 3.33113541 -4.5625 2.5 C-3.92441406 2.0359375 -3.28632812 1.571875 -2.62890625 1.09375 C-1 0 -1 0 0 0 Z " fill="#000102" transform="translate(726,693)"/>
<path d="M0 0 C0.33 5.28 0.66 10.56 1 16 C2.32 15.34 3.64 14.68 5 14 C11.08269216 14.11264245 13.88888141 15.79099763 18 20 C19.67612104 24.76424709 19.51813537 30.03453602 19 35 C16.8642148 39.42977671 14.60987286 42.19613671 10 44 C5.07648933 44.65809301 1.3161626 44.79518157 -3 42.1875 C-8.15701149 36.54701869 -7.67108446 30.62976539 -7.96264648 23.37646484 C-8.06195554 21.13727639 -8.2093619 18.9043888 -8.35742188 16.66796875 C-8.88092966 6.22044001 -8.88092966 6.22044001 -6.46826172 2.87792969 C-2.50223529 0 -2.50223529 0 0 0 Z " fill="#205299" transform="translate(590,693)"/>
<path d="M0 0 C4.4140582 2.24867116 7.23501763 4.91615575 10 9 C10.89779565 13.94716361 11.18482488 19.47112477 9.01171875 24.109375 C6.03968973 27.82671161 2.86474472 29.77664618 -1.8046875 30.3359375 C-12.28908795 30.46932682 -12.28908795 30.46932682 -17 26 C-20.60103966 22.03885638 -20.50032479 17.78530078 -20.35546875 12.66015625 C-19.72315391 7.92821771 -17.42317756 5.25067119 -13.9375 2.1875 C-9.54289675 -0.50596651 -4.99992452 -0.61642905 0 0 Z " fill="#010205" transform="translate(632,707)"/>
<path d="M0 0 C3.37530399 2.25020266 6.11688355 4.15044078 7.8125 7.875 C8.74632012 14.37650237 8.63720287 19.39611314 4.8125 24.875 C2.21954941 27.90010902 0.13126804 28.75891796 -3.89453125 29.11328125 C-8.70469326 29.2282411 -12.29697852 29.2655796 -16.75 27.3125 C-20.85422704 23.20827296 -22.32673548 19.02763305 -22.625 13.3125 C-22.44181239 8.82440363 -21.25432501 6.25637117 -18.1875 2.875 C-12.49449092 -1.75147067 -6.97663408 -2.46234144 0 0 Z " fill="#000103" transform="translate(753.1875,708.125)"/>
<path d="M0 0 C3.77777228 2.09876238 6.61665608 3.88371491 8.375 7.875 C9.25881313 13.5267524 9.14956927 18.23979822 6.6875 23.4375 C3.58564779 26.7070199 0.99149202 28.63350523 -3.52734375 29.30859375 C-14.06081938 29.32215035 -14.06081938 29.32215035 -18.625 24.875 C-22.15997954 19.92602865 -22.48628681 14.76045986 -21.625 8.875 C-17.21143792 -0.11558942 -9.37101179 -2.90824504 0 0 Z " fill="#010306" transform="translate(572.625,779.125)"/>
<path d="M0 0 C0 0.66 0 1.32 0 2 C-1.98 2.33 -3.96 2.66 -6 3 C-5.34 3.45375 -4.68 3.9075 -4 4.375 C-1.35564573 7.84571498 -1.29113262 10.30807653 -1.51171875 14.59375 C-2.11731501 17.57812836 -3.27857896 19.31179349 -5.8046875 21.05078125 C-9.78889822 22.77349158 -14.00965232 23.48529543 -18.26953125 24.2265625 C-19.17058594 24.48179687 -20.07164062 24.73703125 -21 25 C-21.33 25.99 -21.66 26.98 -22 28 C-20.99839844 27.96519531 -19.99679687 27.93039062 -18.96484375 27.89453125 C-5.54448694 27.56769856 -5.54448694 27.56769856 0 31 C1.44430855 33.88861709 1.37688506 35.79647701 1 39 C-1.5786578 42.41292944 -3.13529354 43.78790219 -7.3125 44.8125 C-8.199375 44.874375 -9.08625 44.93625 -10 45 C-9.360625 44.46375 -8.72125 43.9275 -8.0625 43.375 C-5.4214567 40.75167859 -5.4214567 40.75167859 -5 35 C-10.28 34.67 -15.56 34.34 -21 34 C-19.93912798 40.30025984 -19.93912798 40.30025984 -16 45 C-18.95898005 44.86237302 -21.20795996 44.67947621 -23.51171875 42.703125 C-25.82202051 40.02873556 -27 38.60122522 -27 35 C-26.34 34.34 -25.68 33.68 -25 33 C-25.33 32.67 -25.66 32.34 -26 32 C-26.4375 29.1875 -26.4375 29.1875 -26 26 C-23 23.625 -23 23.625 -20 22 C-20.804375 21.38125 -21.60875 20.7625 -22.4375 20.125 C-25 18 -25 18 -26 16 C-26.57268722 9.01321586 -26.57268722 9.01321586 -24.375 5.125 C-18.01411036 -0.56632231 -8.14699337 -0.08839414 0 0 Z " fill="#1C66AB" transform="translate(780,777)"/>
<path d="M0 0 C5.95703125 -0.390625 5.95703125 -0.390625 8 0 C10.90214649 3.17826555 12.13477196 6.65160797 13.55859375 10.671875 C13.78901871 11.31312317 14.01944366 11.95437134 14.2568512 12.61505127 C14.99028001 14.65776567 15.71470889 16.70349963 16.4375 18.75 C17.38851904 21.43447755 18.3446196 24.11702103 19.30859375 26.796875 C19.53831879 27.43604858 19.76804382 28.07522217 20.00473022 28.73376465 C21.69473201 33.35543611 23.73004857 37.64255187 26 42 C26 42.66 26 43.32 26 44 C22.37 44 18.74 44 15 44 C15.04125 43.01 15.0825 42.02 15.125 41 C15.11884129 36.27337944 15.11884129 36.27337944 13 29 C7.39 29 1.78 29 -4 29 C-5.24591691 34.13940726 -6.27288504 38.6787418 -6 44 C-7.98 44 -9.96 44 -12 44 C-11.44828125 42.97261719 -10.8965625 41.94523438 -10.328125 40.88671875 C-7.55769327 35.33974763 -5.49970387 29.54419138 -3.42578125 23.70825195 C-2.74646715 21.80258939 -2.05334932 19.90231872 -1.359375 18.00195312 C-0.92625 16.79087891 -0.493125 15.57980469 -0.046875 14.33203125 C0.54335449 12.68811401 0.54335449 12.68811401 1.14550781 11.01098633 C1.96936076 8.10796393 2.32989602 5.98912544 2 3 C1.34 2.01 0.68 1.02 0 0 Z " fill="#24428B" transform="translate(557,693)"/>
<path d="M0 0 C2.64 0 5.28 0 8 0 C12.16783446 7.67176609 15.2353495 15.65908817 18.21191406 23.84179688 C19.55773971 27.52739127 20.93583846 31.20083867 22.3125 34.875 C22.56700928 35.55900879 22.82151855 36.24301758 23.08374023 36.94775391 C24.41687685 40.52710917 24.41687685 40.52710917 26 44 C22.37 44 18.74 44 15 44 C15.04125 42.948125 15.0825 41.89625 15.125 40.8125 C15.00688955 37.21013123 14.43305324 35.22436979 13 32 C13 31.01 13 30.02 13 29 C7.39 29 1.78 29 -4 29 C-4.495 31.475 -4.495 31.475 -5 34 C-5.36770256 35.39777342 -5.74220028 36.79378551 -6.125 38.1875 C-7.37492028 41.78012418 -7.37492028 41.78012418 -6 44 C-7.98 44 -9.96 44 -12 44 C-11.484375 42.88625 -10.96875 41.7725 -10.4375 40.625 C-8.29505176 35.80449145 -6.35432101 30.91334146 -4.4375 26 C-4.14480225 25.25314941 -3.85210449 24.50629883 -3.55053711 23.73681641 C0.94943182 13.65613517 0.94943182 13.65613517 2 3 C1.34 2.01 0.68 1.02 0 0 Z " fill="#273683" transform="translate(447,764)"/>
<path d="M0 0 C4.40288383 1.84040544 7.22303191 4.99505724 9.8125 8.9375 C11.64791691 14.44375073 11.95662545 20.8749918 9.90625 26.36328125 C6.98610032 31.33315138 3.31962383 34.57990368 -2.125 36.6875 C-8.31187642 37.43742441 -12.64399689 36.91456648 -18.1875 33.9375 C-23.34233882 29.7199046 -25.76833513 25.17105756 -26.625 18.5625 C-25.75263385 11.3343233 -22.84916126 5.60837054 -17.1875 0.9375 C-11.79582662 -2.22620917 -5.85754716 -1.82134864 0 0 Z M-18.5625 8.875 C-21.15125457 13.75380668 -21.03435069 18.54247704 -20.1875 23.9375 C-18.54469652 27.458755 -16.17638967 29.36498493 -12.8125 31.3125 C-7.93349644 32.47416752 -4.51179019 32.57417798 0.0625 30.375 C4.2899979 26.62789959 5.55793618 22.97401055 6.25 17.4375 C5.58311928 12.10245428 3.71286403 8.52969689 -0.5 5 C-7.55501662 2.21080738 -12.93448091 4.28372127 -18.5625 8.875 Z " fill="#929294" transform="translate(764.1875,630.0625)"/>
<path d="M0 0 C4.40288383 1.84040544 7.22303191 4.99505724 9.8125 8.9375 C11.64791691 14.44375073 11.95662545 20.8749918 9.90625 26.36328125 C6.98610032 31.33315138 3.31962383 34.57990368 -2.125 36.6875 C-8.31187642 37.43742441 -12.64399689 36.91456648 -18.1875 33.9375 C-23.34233882 29.7199046 -25.76833513 25.17105756 -26.625 18.5625 C-25.75263385 11.3343233 -22.84916126 5.60837054 -17.1875 0.9375 C-11.79582662 -2.22620917 -5.85754716 -1.82134864 0 0 Z M-18.5625 8.875 C-21.15125457 13.75380668 -21.03435069 18.54247704 -20.1875 23.9375 C-18.54469652 27.458755 -16.17638967 29.36498493 -12.8125 31.3125 C-7.93349644 32.47416752 -4.51179019 32.57417798 0.0625 30.375 C4.2899979 26.62789959 5.55793618 22.97401055 6.25 17.4375 C5.58311928 12.10245428 3.71286403 8.52969689 -0.5 5 C-7.55501662 2.21080738 -12.93448091 4.28372127 -18.5625 8.875 Z " fill="#929294" transform="translate(677.1875,630.0625)"/>
<path d="M0 0 C4.40288383 1.84040544 7.22303191 4.99505724 9.8125 8.9375 C11.64791691 14.44375073 11.95662545 20.8749918 9.90625 26.36328125 C6.98610032 31.33315138 3.31962383 34.57990368 -2.125 36.6875 C-8.31187642 37.43742441 -12.64399689 36.91456648 -18.1875 33.9375 C-23.34233882 29.7199046 -25.76833513 25.17105756 -26.625 18.5625 C-25.75263385 11.3343233 -22.84916126 5.60837054 -17.1875 0.9375 C-11.79582662 -2.22620917 -5.85754716 -1.82134864 0 0 Z M-18.5625 8.875 C-21.15125457 13.75380668 -21.03435069 18.54247704 -20.1875 23.9375 C-18.54469652 27.458755 -16.17638967 29.36498493 -12.8125 31.3125 C-7.93349644 32.47416752 -4.51179019 32.57417798 0.0625 30.375 C4.2899979 26.62789959 5.55793618 22.97401055 6.25 17.4375 C5.58311928 12.10245428 3.71286403 8.52969689 -0.5 5 C-7.55501662 2.21080738 -12.93448091 4.28372127 -18.5625 8.875 Z " fill="#929294" transform="translate(409.1875,630.0625)"/>
<path d="M0 0 C17 0 17 0 23 4 C25.45980837 7.68971256 25.69177647 10.71598668 25 15 C23.1875 18 23.1875 18 21 20 C20.01 20 19.02 20 18 20 C18.97453125 21.48113281 18.97453125 21.48113281 19.96875 22.9921875 C20.81273833 24.28630293 21.65647535 25.58058229 22.5 26.875 C22.92925781 27.52597656 23.35851562 28.17695312 23.80078125 28.84765625 C27 33.7734375 27 33.7734375 27 36 C24.75 36.3125 24.75 36.3125 22 36 C19.03606099 32.68947135 16.63769789 29.05220631 14.25 25.3125 C13.63640625 24.35988281 13.0228125 23.40726563 12.390625 22.42578125 C11 20 11 20 11 18 C14.465 17.505 14.465 17.505 18 17 C18.08096803 15.54257537 18.13917774 14.08387193 18.1875 12.625 C18.22230469 11.81289063 18.25710938 11.00078125 18.29296875 10.1640625 C18.19628906 9.44992187 18.09960938 8.73578125 18 8 C14.20427594 5.13068296 14.20427594 5.13068296 5 5 C5 15.23 5 25.46 5 36 C3.35 36 1.7 36 0 36 C0 24.12 0 12.24 0 0 Z " fill="#909092" transform="translate(820,630)"/>
<path d="M0 0 C17 0 17 0 23 4 C25.45980837 7.68971256 25.69177647 10.71598668 25 15 C23.1875 18 23.1875 18 21 20 C20.01 20 19.02 20 18 20 C18.97453125 21.48113281 18.97453125 21.48113281 19.96875 22.9921875 C20.81273833 24.28630293 21.65647535 25.58058229 22.5 26.875 C22.92925781 27.52597656 23.35851562 28.17695312 23.80078125 28.84765625 C27 33.7734375 27 33.7734375 27 36 C24.75 36.3125 24.75 36.3125 22 36 C19.03606099 32.68947135 16.63769789 29.05220631 14.25 25.3125 C13.63640625 24.35988281 13.0228125 23.40726563 12.390625 22.42578125 C11 20 11 20 11 18 C14.465 17.505 14.465 17.505 18 17 C18.08096803 15.54257537 18.13917774 14.08387193 18.1875 12.625 C18.22230469 11.81289063 18.25710938 11.00078125 18.29296875 10.1640625 C18.19628906 9.44992187 18.09960938 8.73578125 18 8 C14.20427594 5.13068296 14.20427594 5.13068296 5 5 C5 15.23 5 25.46 5 36 C3.35 36 1.7 36 0 36 C0 24.12 0 12.24 0 0 Z " fill="#909092" transform="translate(709,630)"/>
<path d="M0 0 C17 0 17 0 23 4 C25.45980837 7.68971256 25.69177647 10.71598668 25 15 C23.1875 18 23.1875 18 21 20 C20.01 20 19.02 20 18 20 C18.97453125 21.48113281 18.97453125 21.48113281 19.96875 22.9921875 C20.81273833 24.28630293 21.65647535 25.58058229 22.5 26.875 C22.92925781 27.52597656 23.35851562 28.17695312 23.80078125 28.84765625 C27 33.7734375 27 33.7734375 27 36 C24.75 36.3125 24.75 36.3125 22 36 C19.03606099 32.68947135 16.63769789 29.05220631 14.25 25.3125 C13.63640625 24.35988281 13.0228125 23.40726563 12.390625 22.42578125 C11 20 11 20 11 18 C14.465 17.505 14.465 17.505 18 17 C18.08096803 15.54257537 18.13917774 14.08387193 18.1875 12.625 C18.22230469 11.81289063 18.25710938 11.00078125 18.29296875 10.1640625 C18.19628906 9.44992187 18.09960938 8.73578125 18 8 C14.20427594 5.13068296 14.20427594 5.13068296 5 5 C5 15.23 5 25.46 5 36 C3.35 36 1.7 36 0 36 C0 24.12 0 12.24 0 0 Z " fill="#909092" transform="translate(593,630)"/>
<path d="M0 0 C17 0 17 0 23 4 C25.45980837 7.68971256 25.69177647 10.71598668 25 15 C23.1875 18 23.1875 18 21 20 C20.01 20 19.02 20 18 20 C18.97453125 21.48113281 18.97453125 21.48113281 19.96875 22.9921875 C20.81273833 24.28630293 21.65647535 25.58058229 22.5 26.875 C22.92925781 27.52597656 23.35851562 28.17695312 23.80078125 28.84765625 C27 33.7734375 27 33.7734375 27 36 C24.75 36.3125 24.75 36.3125 22 36 C19.03606099 32.68947135 16.63769789 29.05220631 14.25 25.3125 C13.63640625 24.35988281 13.0228125 23.40726563 12.390625 22.42578125 C11 20 11 20 11 18 C14.465 17.505 14.465 17.505 18 17 C18.08096803 15.54257537 18.13917774 14.08387193 18.1875 12.625 C18.22230469 11.81289063 18.25710938 11.00078125 18.29296875 10.1640625 C18.19628906 9.44992187 18.09960938 8.73578125 18 8 C14.20427594 5.13068296 14.20427594 5.13068296 5 5 C5 15.23 5 25.46 5 36 C3.35 36 1.7 36 0 36 C0 24.12 0 12.24 0 0 Z " fill="#909092" transform="translate(325,630)"/>
<path d="M0 0 C12.55555556 0 12.55555556 0 18.875 5.6875 C20.67579479 9.38913374 20.52042126 12.96673522 20 17 C18.16159481 21.59601298 15.43041256 23.86390823 11 26 C7.37 26 3.74 26 0 26 C0 17.42 0 8.84 0 0 Z " fill="#010101" transform="translate(788,635)"/>
<path d="M0 0 C1.4540625 0.99 1.4540625 0.99 2.9375 2 C2.6075 3.32 2.2775 4.64 1.9375 6 C-2.8125 5.125 -2.8125 5.125 -5.0625 4 C-9.15407355 3.48487383 -13.29839546 3.05632731 -17.01953125 5.046875 C-19.15565687 6.81398622 -20.81699171 8.50898341 -22.0625 11 C-22.48569269 16.47197988 -22.66168296 22.04917532 -20.0625 27 C-16.42819979 28.86815783 -13.42876676 29.24833415 -9.375 29.1875 C-8.42238281 29.18105469 -7.46976563 29.17460938 -6.48828125 29.16796875 C-4.05319221 29.15549623 -4.05319221 29.15549623 -2.0625 28 C-1.59498212 25.64400765 -1.59498212 25.64400765 -1.4375 22.9375 C-1.36273437 22.01839844 -1.28796875 21.09929688 -1.2109375 20.15234375 C-1.16195313 19.44207031 -1.11296875 18.73179687 -1.0625 18 C0.5875 18 2.2375 18 3.9375 18 C3.9375 22.29 3.9375 26.58 3.9375 31 C-2.79299537 34.51821349 -8.58026206 36.19135189 -16.18359375 34.5390625 C-21.44337771 32.84877276 -24.00496267 30.586306 -27.0625 26 C-29.52314753 20.61001018 -30.25037906 15.21894014 -28.1875 9.62890625 C-25.41124109 4.067256 -22.74247411 1.47853416 -17.0625 -1 C-11.20114014 -2.73016044 -5.41033232 -3.11204075 0 0 Z " fill="#919193" transform="translate(1040.0625,632)"/>
<path d="M0 0 C1.4540625 0.99 1.4540625 0.99 2.9375 2 C2.6075 3.32 2.2775 4.64 1.9375 6 C-2.8125 5.125 -2.8125 5.125 -5.0625 4 C-9.15407355 3.48487383 -13.29839546 3.05632731 -17.01953125 5.046875 C-19.15565687 6.81398622 -20.81699171 8.50898341 -22.0625 11 C-22.48569269 16.47197988 -22.66168296 22.04917532 -20.0625 27 C-16.42819979 28.86815783 -13.42876676 29.24833415 -9.375 29.1875 C-8.42238281 29.18105469 -7.46976563 29.17460938 -6.48828125 29.16796875 C-4.05319221 29.15549623 -4.05319221 29.15549623 -2.0625 28 C-1.59498212 25.64400765 -1.59498212 25.64400765 -1.4375 22.9375 C-1.36273437 22.01839844 -1.28796875 21.09929688 -1.2109375 20.15234375 C-1.16195312 19.44207031 -1.11296875 18.73179687 -1.0625 18 C0.5875 18 2.2375 18 3.9375 18 C3.9375 22.29 3.9375 26.58 3.9375 31 C-2.79299537 34.51821349 -8.58026206 36.19135189 -16.18359375 34.5390625 C-21.44337771 32.84877276 -24.00496267 30.586306 -27.0625 26 C-29.52314753 20.61001018 -30.25037906 15.21894014 -28.1875 9.62890625 C-25.41124109 4.067256 -22.74247411 1.47853416 -17.0625 -1 C-11.20114014 -2.73016044 -5.41033232 -3.11204075 0 0 Z " fill="#919193" transform="translate(892.0625,632)"/>
<path d="M0 0 C0.99 0.66 1.98 1.32 3 2 C2.67 3.65 2.34 5.3 2 7 C1.360625 6.690625 0.72125 6.38125 0.0625 6.0625 C-3.85090909 4.70478664 -7.8403295 3.90193311 -12 4 C-14.28728734 5.83883881 -14.28728734 5.83883881 -14.125 8.625 C-14.08375 9.40875 -14.0425 10.1925 -14 11 C-13.41992188 11.25394531 -12.83984375 11.50789062 -12.2421875 11.76953125 C-9.8230897 12.83537137 -7.4112406 13.91651771 -5 15 C-3.88625 15.495 -2.7725 15.99 -1.625 16.5 C1.18807003 18.10746859 2.52125521 19.1246629 4 22 C4.43371102 25.39740298 4.19671024 27.5024388 2.9375 30.6875 C-0.4442677 34.72380339 -4.37373068 35.82575686 -9.5 36.375 C-14.27164291 35.86375255 -17.72067106 34.13966447 -22 32 C-21.625 30.0625 -21.625 30.0625 -21 28 C-20.34 27.67 -19.68 27.34 -19 27 C-18.13375 27.474375 -17.2675 27.94875 -16.375 28.4375 C-12.1145104 30.40994889 -9.65057424 30.38754785 -5 30 C-2.4345406 27.4345406 -2.45953913 25.52313332 -2 22 C-2.556875 21.82984375 -3.11375 21.6596875 -3.6875 21.484375 C-17.62857143 17.05714286 -17.62857143 17.05714286 -21 12 C-21.5190051 8.10746173 -21.13759843 6.26500438 -19.3125 2.75 C-14.27097132 -3.24533141 -6.64427263 -3.79288437 0 0 Z " fill="#929293" transform="translate(445,631)"/>
<path d="M0 0 C3.92888829 0.26787875 5.54876221 0.52437097 8.3125 3.4375 C10.40979829 6.6222863 11.13143668 8.38057263 11.31640625 12.1328125 C11.35830078 12.93847656 11.40019531 13.74414062 11.44335938 14.57421875 C11.48267578 15.41597656 11.52199219 16.25773438 11.5625 17.125 C11.60568359 17.97449219 11.64886719 18.82398438 11.69335938 19.69921875 C11.79954236 21.79928223 11.90028497 23.89961948 12 26 C12.66 25.67 13.32 25.34 14 25 C13 28 13 28 11 29 C7.62177584 29.14375422 5.22609045 29.07536348 2 28 C1.34 28.33 0.68 28.66 0 29 C-1.83037287 29.12145993 -3.66564133 29.17543185 -5.5 29.1875 C-6.4796875 29.20167969 -7.459375 29.21585938 -8.46875 29.23046875 C-11 29 -11 29 -13 27 C-13.5 23.6875 -13.5 23.6875 -13 20 C-8.76529905 15.56833622 -4.82313483 13.10653339 1.3125 12.875 C2.199375 12.91625 3.08625 12.9575 4 13 C3.71717874 5.86398354 3.71717874 5.86398354 0 0 Z " fill="#03050B" transform="translate(633,779)"/>
<path d="M0 0 C1.65 0 3.3 0 5 0 C5.01458252 0.69561035 5.02916504 1.3912207 5.04418945 2.10791016 C5.11897969 5.28081338 5.21553812 8.45270008 5.3125 11.625 C5.33505859 12.71941406 5.35761719 13.81382812 5.38085938 14.94140625 C5.62042929 22.8923258 5.62042929 22.8923258 9 30 C12.14341993 31.57170996 15.55771451 31.23175783 19 31 C22.16858434 30.33610603 22.16858434 30.33610603 23.1484375 27.7109375 C24.37464262 22.36738307 24.47046284 17.09175192 24.625 11.625 C24.66367187 10.50738281 24.70234375 9.38976562 24.7421875 8.23828125 C24.83606555 5.49234839 24.92174911 2.74641524 25 0 C26.65 0 28.3 0 30 0 C30.08765069 4.02069425 30.14061018 8.0411401 30.1875 12.0625 C30.21263672 13.19623047 30.23777344 14.32996094 30.26367188 15.49804688 C30.32974845 23.05280239 30.0554749 28.48157436 24.9375 34.375 C20.25633149 36.96458258 15.15531443 37.7697322 9.90234375 36.48828125 C6.75435848 35.22507697 3.91609508 33.82371906 2 31 C-0.42569262 24.55814231 -0.23022394 18.38182047 -0.125 11.5625 C-0.11597656 10.44939453 -0.10695313 9.33628906 -0.09765625 8.18945312 C-0.0742224 5.45940977 -0.041414 2.7298199 0 0 Z " fill="#919193" transform="translate(903,630)"/>
<path d="M0 0 C0.99 0.33 1.98 0.66 3 1 C1.68 1.33 0.36 1.66 -1 2 C-0.67 2.66 -0.34 3.32 0 4 C2.41849887 4.23558744 4.76341711 4.37546186 7.1875 4.4375 C12.65455836 4.60381875 17.90074122 4.90074122 22 9 C22.50781969 14.16283349 22.50781969 14.16283349 22 17 C17.78194697 21.32905443 14.65002993 22.18453131 8.75 22.3125 C1.40630836 22.23938803 1.40630836 22.23938803 -1.75 20.375 C-4.41487803 17.56207319 -4.82620356 15.82352164 -5 12 C-4.01 11.67 -3.02 11.34 -2 11 C-2 10.34 -2 9.68 -2 9 C-2.99 8.67 -3.98 8.34 -5 8 C-4.66275164 4.88045262 -4.3790035 3.3790035 -2.125 1.125 C-1.42375 0.75375 -0.7225 0.3825 0 0 Z " fill="#273481" transform="translate(650,729)"/>
<path d="M0 0 C6.93 0 13.86 0 21 0 C21 1.65 21 3.3 21 5 C15.72 5 10.44 5 5 5 C5 8.3 5 11.6 5 15 C9.62 15 14.24 15 19 15 C19 16.65 19 18.3 19 20 C14.38 20 9.76 20 5 20 C5 23.63 5 27.26 5 31 C10.28 31 15.56 31 21 31 C21 32.65 21 34.3 21 36 C14.07 36 7.14 36 0 36 C0 24.12 0 12.24 0 0 Z " fill="#969698" transform="translate(942,630)"/>
<path d="M0 0 C6.93 0 13.86 0 21 0 C21 1.65 21 3.3 21 5 C15.72 5 10.44 5 5 5 C5 8.3 5 11.6 5 15 C9.62 15 14.24 15 19 15 C19 16.65 19 18.3 19 20 C14.38 20 9.76 20 5 20 C5 23.63 5 27.26 5 31 C10.28 31 15.56 31 21 31 C21 32.65 21 34.3 21 36 C14.07 36 7.14 36 0 36 C0 24.12 0 12.24 0 0 Z " fill="#969698" transform="translate(564,630)"/>
<path d="M0 0 C8.58 0 17.16 0 26 0 C24.39978757 4.00053108 22.83227254 7.0745918 20.55859375 10.66796875 C19.89279297 11.72564453 19.22699219 12.78332031 18.54101562 13.87304688 C17.84685547 14.96681641 17.15269531 16.06058594 16.4375 17.1875 C15.06050851 19.36805439 13.68417225 21.54902272 12.30859375 23.73046875 C11.69814209 24.69364014 11.08769043 25.65681152 10.45874023 26.64916992 C9.00971549 28.90423897 9.00971549 28.90423897 8 31 C13.61 31 19.22 31 25 31 C25 32.65 25 34.3 25 36 C16.42 36 7.84 36 -1 36 C0.60021243 31.99946892 2.16772746 28.9254082 4.44140625 25.33203125 C5.10720703 24.27435547 5.77300781 23.21667969 6.45898438 22.12695312 C7.15314453 21.03318359 7.84730469 19.93941406 8.5625 18.8125 C9.93949149 16.63194561 11.31582775 14.45097728 12.69140625 12.26953125 C13.30185791 11.30635986 13.91230957 10.34318848 14.54125977 9.35083008 C15.99028451 7.09576103 15.99028451 7.09576103 17 5 C11.39 5 5.78 5 0 5 C0 3.35 0 1.7 0 0 Z " fill="#959597" transform="translate(967,630)"/>
<path d="M0 0 C2.87205955 1.20126482 5.3748387 2.66786122 7.96484375 4.39453125 C7.30484375 5.71453125 6.64484375 7.03453125 5.96484375 8.39453125 C4.95421875 7.89953125 3.94359375 7.40453125 2.90234375 6.89453125 C-2.11353284 4.77087382 -6.1556953 4.67166165 -11.28515625 6.64453125 C-14.09995964 8.43576977 -15.33891072 9.56419649 -17.03515625 12.39453125 C-17.84930154 17.72681616 -17.933222 22.73144652 -15.34765625 27.51953125 C-11.36583922 30.74803155 -8.67243984 31.60432708 -3.59765625 31.14453125 C0.09411011 30.6321289 3.47639795 29.73624117 6.96484375 28.39453125 C7.29484375 29.71453125 7.62484375 31.03453125 7.96484375 32.39453125 C1.94629489 36.63487249 -1.64682178 37.89543528 -9.03515625 37.39453125 C-15.66919905 35.22131033 -19.49534839 32.20866286 -22.84765625 26.08203125 C-24.74612485 20.18678665 -24.92566494 15.78223703 -22.34765625 10.20703125 C-17.3957155 1.3005371 -10.03220489 -2.98462909 0 0 Z " fill="#919193" transform="translate(275.03515625,629.60546875)"/>
<path d="M0 0 C3.37530399 2.25020266 6.11688355 4.15044078 7.8125 7.875 C8.74632012 14.37650237 8.63720287 19.39611314 4.8125 24.875 C2.21954941 27.90010902 0.13126804 28.75891796 -3.89453125 29.11328125 C-8.70469326 29.2282411 -12.29697852 29.2655796 -16.75 27.3125 C-20.85422704 23.20827296 -22.32673548 19.02763305 -22.625 13.3125 C-22.44181239 8.82440363 -21.25432501 6.25637117 -18.1875 2.875 C-12.49449092 -1.75147067 -6.97663408 -2.46234144 0 0 Z M-11.875 2.1875 C-15.83856585 6.79380626 -15.456358 11.08823916 -15.4140625 16.91796875 C-15.05408463 21.61630056 -13.47086389 24.59163611 -10.1875 27.875 C-6.72963985 28.37507794 -6.72963985 28.37507794 -3.1875 27.875 C-0.19258522 24.97991572 0.74539457 22.05792821 0.98046875 17.9140625 C0.98691406 16.78742187 0.99335937 15.66078125 1 14.5 C1.02126953 12.81777344 1.02126953 12.81777344 1.04296875 11.1015625 C0.74335109 6.90691526 -0.01016238 4.01309303 -3.0625 1.0625 C-6.8447513 -1.05111102 -8.68257056 -0.55947417 -11.875 2.1875 Z " fill="#27317D" transform="translate(753.1875,708.125)"/>
<path d="M0 0 C0.5775 0.226875 1.155 0.45375 1.75 0.6875 C1.275625 1.285625 0.80125 1.88375 0.3125 2.5 C-3.32189114 7.5881476 -2.71684155 13.68977294 -2.25 19.6875 C-0.76374788 23.53665157 -0.76374788 23.53665157 1.75 26.6875 C5.94312773 27.12761973 5.94312773 27.12761973 9.5625 25.3125 C13.35352961 20.12477526 12.24503169 12.8336077 11.75 6.6875 C10.73006538 3.78358133 9.65890046 2.13327872 7.75 -0.3125 C11.79460104 -0.21619998 14.25389455 0.66893403 17.125 3.4375 C20.56635809 7.82318854 20.53227913 12.23883304 20.27734375 17.6484375 C19.49735153 22.14350376 18.22260156 23.76735778 14.75 26.6875 C9.83319863 29.74187661 4.33891135 29.29352653 -1.25 28.6875 C-5.70498552 26.5772437 -8.47604963 24.31948151 -10.25 19.6875 C-10.91541913 14.31485666 -10.94575726 10.07901451 -8.5 5.1875 C-3.40555556 -0.47299383 -3.40555556 -0.47299383 0 0 Z " fill="#244590" transform="translate(622.25,708.3125)"/>
<path d="M0 0 C-0.474375 0.598125 -0.94875 1.19625 -1.4375 1.8125 C-4.13802575 5.59323605 -4.16139727 8.78628628 -4.1875 13.3125 C-4.20167969 14.42238281 -4.21585938 15.53226563 -4.23046875 16.67578125 C-3.99333157 20.0961836 -3.22108501 22.80973443 -2 26 C0.97 26 3.94 26 7 26 C10.78383536 19.40588904 10.81965445 13.44591361 10 6 C8.96097579 3.16179968 7.84803205 1.42554207 6 -1 C10.08391981 -0.90276381 12.50332575 -0.00447569 15.375 2.8125 C18.67092688 7.01047003 18.73635335 10.99080968 18.45703125 16.1875 C17.83670039 20.0049207 16.65695572 22.19942505 14 25 C8.55429041 28.89246596 3.4854107 28.78211592 -3 28 C-6.84481888 26.24622296 -8.44384479 24.77861729 -10.875 21.375 C-12.85204528 15.44386417 -13.09406538 10.22865171 -10.3125 4.5625 C-4.7625 -1.5875 -4.7625 -1.5875 0 0 Z " fill="#1D66AB" transform="translate(563,780)"/>
<path d="M0 0 C3.75671609 0.90451688 5.57626487 2.7564453 8.22265625 5.53515625 C9.83230412 8.75445198 9.82951867 12.05403337 9.22265625 15.53515625 C6.68811968 18.7547027 5.1096832 20.2394806 1.22265625 21.53515625 C0.56265625 22.52515625 -0.09734375 23.51515625 -0.77734375 24.53515625 C-1.43734375 23.54515625 -2.09734375 22.55515625 -2.77734375 21.53515625 C-4.43141685 20.43516157 -4.43141685 20.43516157 -6.27734375 19.53515625 C-9.20620464 18.04590495 -9.83298533 17.45169388 -11.77734375 14.53515625 C-12.29588329 10.01645456 -12.47095263 6.85480053 -9.83984375 3.03515625 C-6.26621878 0.11791137 -4.4936443 -0.2925745 0 0 Z " fill="#929395" transform="translate(738.77734375,93.46484375)"/>
<path d="M0 0 C4.48838047 3.65380632 6.2159663 8.380033 8.4375 13.5625 C9.22633785 15.36337967 10.01539884 17.16416161 10.8046875 18.96484375 C11.18077148 19.83093262 11.55685547 20.69702148 11.94433594 21.58935547 C13.63825624 25.45747968 15.4313456 29.27768723 17.22265625 33.1015625 C18 35 18 35 18 37 C16.35 37 14.7 37 13 37 C4.55353075 20.29157175 4.55353075 20.29157175 1 12 C-1.84514747 13.42257374 -2.11949731 15.18613109 -3.34765625 18.09375 C-3.78787109 19.12371094 -4.22808594 20.15367187 -4.68164062 21.21484375 C-5.13732422 22.29894531 -5.59300781 23.38304687 -6.0625 24.5 C-6.96806153 26.63626156 -7.87551153 28.77172392 -8.78515625 30.90625 C-9.18613525 31.85822266 -9.58711426 32.81019531 -10.00024414 33.79101562 C-11 36 -11 36 -12 37 C-13.66617115 37.04063832 -15.33388095 37.042721 -17 37 C-16.24987695 33.12436425 -14.56583842 29.72185054 -12.875 26.1875 C-12.24329247 24.85295787 -11.61178826 23.51831948 -10.98046875 22.18359375 C-10.65481934 21.49765137 -10.32916992 20.81170898 -9.99365234 20.10498047 C-9.00158121 18.00334968 -8.02377382 15.89568076 -7.05078125 13.78515625 C-6.73834473 13.10880127 -6.4259082 12.43244629 -6.10400391 11.7355957 C-5.50445364 10.43667661 -4.90640986 9.13706082 -4.31005859 7.83666992 C-3.02209199 5.05795209 -1.70432176 2.55648263 0 0 Z " fill="#939395" transform="translate(482,629)"/>
<path d="M0 0 C4.48838047 3.65380632 6.2159663 8.380033 8.4375 13.5625 C9.22633785 15.36337967 10.01539884 17.16416161 10.8046875 18.96484375 C11.18077148 19.83093262 11.55685547 20.69702148 11.94433594 21.58935547 C13.63825624 25.45747968 15.4313456 29.27768723 17.22265625 33.1015625 C18 35 18 35 18 37 C16.35 37 14.7 37 13 37 C4.55353075 20.29157175 4.55353075 20.29157175 1 12 C-1.84514747 13.42257374 -2.11949731 15.18613109 -3.34765625 18.09375 C-3.78787109 19.12371094 -4.22808594 20.15367187 -4.68164062 21.21484375 C-5.13732422 22.29894531 -5.59300781 23.38304687 -6.0625 24.5 C-6.96806153 26.63626156 -7.87551153 28.77172392 -8.78515625 30.90625 C-9.18613525 31.85822266 -9.58711426 32.81019531 -10.00024414 33.79101562 C-11 36 -11 36 -12 37 C-13.66617115 37.04063832 -15.33388095 37.042721 -17 37 C-16.24987695 33.12436425 -14.56583842 29.72185054 -12.875 26.1875 C-12.24329247 24.85295787 -11.61178826 23.51831948 -10.98046875 22.18359375 C-10.65481934 21.49765137 -10.32916992 20.81170898 -9.99365234 20.10498047 C-9.00158121 18.00334968 -8.02377382 15.89568076 -7.05078125 13.78515625 C-6.73834473 13.10880127 -6.4259082 12.43244629 -6.10400391 11.7355957 C-5.50445364 10.43667661 -4.90640986 9.13706082 -4.31005859 7.83666992 C-3.02209199 5.05795209 -1.70432176 2.55648263 0 0 Z " fill="#939395" transform="translate(302,629)"/>
<path d="M0 0 C3.63 0 7.26 0 11 0 C10.01 1.485 10.01 1.485 9 3 C8.71236735 4.91620334 8.71236735 4.91620334 8.77294922 7.01245117 C8.77310028 7.81305466 8.77325134 8.61365814 8.77340698 9.43852234 C8.78372955 10.29798965 8.79405212 11.15745697 8.8046875 12.04296875 C8.8075174 12.9265657 8.81034729 13.81016266 8.81326294 14.72053528 C8.82445903 17.54299454 8.84956249 20.36513662 8.875 23.1875 C8.88503054 25.10090688 8.89415626 27.01431873 8.90234375 28.92773438 C8.92439649 33.61861182 8.95892238 38.30925213 9 43 C10.7739357 42.86717088 12.54727172 42.72631514 14.3203125 42.58203125 C15.30789551 42.5044458 16.29547852 42.42686035 17.31298828 42.34692383 C20.55593116 41.92822295 22.44477109 41.02915237 25 39 C25.928125 38.278125 26.85625 37.55625 27.8125 36.8125 C28.534375 36.214375 29.25625 35.61625 30 35 C29.67 37.97 29.34 40.94 29 44 C19.1 44 9.2 44 -1 44 C-0.34 43.01 0.32 42.02 1 41 C1.24144163 38.03115535 1.37307097 35.148132 1.4140625 32.17578125 C1.43342865 31.31438034 1.4527948 30.45297943 1.4727478 29.56547546 C1.5325203 26.81458432 1.57891948 24.06365127 1.625 21.3125 C1.66318194 19.44724739 1.7022338 17.58201237 1.7421875 15.71679688 C1.8382199 11.14467414 1.9222595 6.57246886 2 2 C1.34 2 0.68 2 0 2 C0 1.34 0 0.68 0 0 Z " fill="#264594" transform="translate(692,764)"/>
<path d="M0 0 C0.5775 0.226875 1.155 0.45375 1.75 0.6875 C1.110625 1.368125 0.47125 2.04875 -0.1875 2.75 C-2.5758493 6.15158839 -2.92877153 8.59183701 -3.25 12.6875 C0.71 12.6875 4.67 12.6875 8.75 12.6875 C8.46125 11.099375 8.1725 9.51125 7.875 7.875 C7.71257813 6.98167969 7.55015625 6.08835937 7.3828125 5.16796875 C6.83811551 2.46022154 6.83811551 2.46022154 4.75 -0.3125 C7.80160064 -0.24153254 9.97484499 -0.0375804 12.26171875 2.1015625 C15.61089337 6.45836845 15.75 7.64940944 15.75 13.6875 C9.48 13.6875 3.21 13.6875 -3.25 13.6875 C-1.96224249 21.20164018 -1.96224249 21.20164018 2.75 25.6875 C6.636057 25.78170744 10.08361359 24.9096288 13.75 23.6875 C13.75 24.3475 13.75 25.0075 13.75 25.6875 C9.78140414 29.24555146 5.4978054 29.24640311 0.4140625 29.109375 C-3.82923292 28.4374162 -5.41891652 26.8815429 -8.25 23.6875 C-11.13586092 18.99423138 -10.88463745 14.02774199 -10.25 8.6875 C-8.18072771 4.54895543 -5.22166055 -0.72523063 0 0 Z " fill="#20488D" transform="translate(508.25,779.3125)"/>
<path d="M0 0 C3.70390021 2.02666238 5.65363011 3.48044516 8 7 C8.31884766 9.0847168 8.31884766 9.0847168 8.4140625 11.44921875 C8.45273437 12.29677734 8.49140625 13.14433594 8.53125 14.01757812 C8.5621875 14.89865234 8.593125 15.77972656 8.625 16.6875 C8.66367187 17.58017578 8.70234375 18.47285156 8.7421875 19.39257812 C8.83640218 21.5948462 8.92201588 23.79710722 9 26 C9.66 26.33 10.32 26.66 11 27 C11 27.66 11 28.32 11 29 C8.26752652 30.36623674 6.01801098 30.128426 3 30 C2 29 2 29 1.90234375 25.83984375 C1.91394531 24.55207031 1.92554688 23.26429688 1.9375 21.9375 C1.94652344 20.64714844 1.95554687 19.35679687 1.96484375 18.02734375 C1.97644531 17.02832031 1.98804688 16.02929688 2 15 C-2.95 16.485 -2.95 16.485 -8 18 C-9.04214691 22.61507774 -9.04214691 22.61507774 -8 27 C-6.10466658 27.46523063 -6.10466658 27.46523063 -3.9375 27.625 C-2.638125 27.74875 -1.33875 27.8725 0 28 C-2 30 -2 30 -4.53125 30.265625 C-5.5109375 30.26046875 -6.490625 30.2553125 -7.5 30.25 C-8.4796875 30.25515625 -9.459375 30.2603125 -10.46875 30.265625 C-13 30 -13 30 -15 28 C-15.57285397 23.6626771 -15.54765252 21.72483422 -12.875 18.1875 C-8.05898441 14.52314031 -3.98414552 13.71504069 2 14 C1.85831863 12.56208484 1.71148957 11.1246763 1.5625 9.6875 C1.48128906 8.88699219 1.40007813 8.08648438 1.31640625 7.26171875 C1.04734307 4.83912821 1.04734307 4.83912821 0 2 C-4.455 2.495 -4.455 2.495 -9 3 C-9.33 4.98 -9.66 6.96 -10 9 C-11.32 7.68 -12.64 6.36 -14 5 C-9.60905113 0.30622706 -6.43928912 -0.54570247 0 0 Z " fill="#215AA3" transform="translate(687,707)"/>
<path d="M0 0 C-0.61875 0.495 -1.2375 0.99 -1.875 1.5 C-4.74988222 4.88221437 -5.13451417 7.67257085 -6 12 C-1.71 12 2.58 12 7 12 C6.5359375 9.8653125 6.5359375 9.8653125 6.0625 7.6875 C5.88847656 6.88699219 5.71445312 6.08648438 5.53515625 5.26171875 C5.00113841 2.854599 5.00113841 2.854599 4 0 C3.34 -0.33 2.68 -0.66 2 -1 C6.16210575 -0.80641369 7.74772093 -0.23034176 10.875 2.625 C13 6 13 6 13 13 C6.73 13 0.46 13 -6 13 C-4.33232605 20.02638472 -4.33232605 20.02638472 0 25 C4.66781174 25.32979105 8.11097483 24.59268345 12 22 C11.05813338 24.35466655 10.42907632 25.72616253 8.26171875 27.109375 C3.9795907 28.79560159 -0.48409502 28.53680891 -5 28 C-9.38015372 25.62741674 -11.3037142 22.6424664 -13 18 C-13.70826913 11.72675916 -12.68063312 7.19338525 -9 2 C-5.79292554 -0.64583643 -3.94180893 -1.60592216 0 0 Z " fill="#23448D" transform="translate(834,780)"/>
<path d="M0 0 C3.53208833 1.2254184 4.73816108 2.62562298 6.3671875 5.97265625 C8.1925929 11.45912754 7.68730484 16.30543525 5.25 21.5 C3.71370361 24.41366558 2.94940893 25.13789405 0.0625 27.0625 C-2.5625 27.25 -2.5625 27.25 -4.9375 27.0625 C-7.48163982 24.51836018 -6.17185466 17.5454618 -6.1875 14.125 C-6.208125 13.00158203 -6.22875 11.87816406 -6.25 10.72070312 C-6.25515625 9.64884766 -6.2603125 8.57699219 -6.265625 7.47265625 C-6.2749707 6.48402588 -6.28431641 5.49539551 -6.29394531 4.47680664 C-6.17631836 3.68008545 -6.05869141 2.88336426 -5.9375 2.0625 C-2.9375 0.0625 -2.9375 0.0625 0 0 Z " fill="#000204" transform="translate(595.9375,708.9375)"/>
<path d="M0 0 C0.89203125 0.00902344 1.7840625 0.01804687 2.703125 0.02734375 C3.37859375 0.03894531 4.0540625 0.05054688 4.75 0.0625 C4.75 0.7225 4.75 1.3825 4.75 2.0625 C2.77 2.3925 0.79 2.7225 -1.25 3.0625 C-0.59 3.7225 0.07 4.3825 0.75 5.0625 C3.29485058 8.87977587 3.63640655 11.59428739 2.75 16.0625 C0.82195216 19.47366156 -0.56607615 20.7502739 -4.125 22.375 C-8.78456481 23.40010426 -11.92497981 23.55613497 -16.4375 21.875 C-19.59714641 19.83878342 -20.80466834 18.51523673 -22.25 15.0625 C-22.6930062 11.51845039 -22.48046098 9.56951415 -21 6.3125 C-19.15762835 3.94373645 -18.1081457 2.92860476 -15.25 2.0625 C-13 2.4375 -13 2.4375 -11.25 3.0625 C-12.24 4.5475 -12.24 4.5475 -13.25 6.0625 C-13.5674994 8.66963564 -13.5674994 8.66963564 -13.5 11.5 C-13.50515625 12.44746094 -13.5103125 13.39492188 -13.515625 14.37109375 C-13.24748089 17.08802453 -12.63531142 18.73715583 -11.25 21.0625 C-9.30000871 20.86778889 -9.30000871 20.86778889 -7.25 20.0625 C-4.65584477 15.91550538 -4.54403077 11.81547892 -5.25 7.0625 C-6.35318158 4.70744715 -7.58281642 3.09437998 -9.25 1.0625 C-6.09493858 0.12630187 -3.28413498 -0.0432123 0 0 Z " fill="#283482" transform="translate(667.25,705.9375)"/>
<path d="M0 0 C8.91 0 17.82 0 27 0 C27 1.65 27 3.3 27 5 C23.37 5 19.74 5 16 5 C16 15.23 16 25.46 16 36 C14.35 36 12.7 36 11 36 C11 25.77 11 15.54 11 5 C7.37 5 3.74 5 0 5 C0 3.35 0 1.7 0 0 Z " fill="#979799" transform="translate(621,630)"/>
<path d="M0 0 C-0.99 0.33 -1.98 0.66 -3 1 C-4.03038956 3.56042066 -4.03038956 3.56042066 -4.6875 6.5625 C-5.120625 8.356875 -5.55375 10.15125 -6 12 C-1.71 12 2.58 12 7 12 C6.71125 10.5975 6.4225 9.195 6.125 7.75 C5.88136719 6.56664062 5.88136719 6.56664062 5.6328125 5.359375 C5.00849925 3.03168856 4.15161458 1.10968048 3 -1 C6.7606782 -0.7851041 7.97108473 -0.02760094 10.75 2.625 C13.72922259 6.03790689 13.26024904 7.82174331 14 13 C7.4 13 0.8 13 -6 13 C-3.89901988 21.24644289 -3.89901988 21.24644289 -1.1875 24.0625 C1.82939999 25.35545714 3.73861854 25.45659341 7 25 C10.32808239 23.11586085 10.32808239 23.11586085 13 21 C12.03441599 23.54563057 11.06131195 24.94635204 9 26.75 C4.60597051 28.58084562 0.68174958 28.91741905 -4 28 C-7.97654007 25.72155001 -10.54330193 23.37009421 -12 19 C-13.1454 9.08286584 -13.1454 9.08286584 -10.73046875 4.69140625 C-7.34074306 0.72435502 -5.2774307 -1.58322921 0 0 Z " fill="#1E559A" transform="translate(737,780)"/>
<path d="M0 0 C3.62539534 0.20716545 4.94109408 0.94594516 7.65625 3.4375 C10.972909 7.59091088 10.56204659 11.7765713 10.3125 16.875 C10.28994141 17.75414062 10.26738281 18.63328125 10.24414062 19.5390625 C10.18559748 21.69345007 10.09592783 23.8469531 10 26 C10.99 26.33 11.98 26.66 13 27 C11 29 11 29 7.375 29.125 C6.26125 29.08375 5.1475 29.0425 4 29 C2.90493508 25.71480525 2.90039392 23.26336585 2.9375 19.8125 C2.94652344 18.72582031 2.95554687 17.63914062 2.96484375 16.51953125 C2.97644531 15.68808594 2.98804688 14.85664062 3 14 C1.51965236 14.47550561 0.04074979 14.95551216 -1.4375 15.4375 C-2.67306641 15.83775391 -2.67306641 15.83775391 -3.93359375 16.24609375 C-5.96219588 16.82155494 -5.96219588 16.82155494 -7 18 C-7.50070321 21.37357334 -7.50070321 21.37357334 -7 25 C-4.64167228 27.47208796 -4.64167228 27.47208796 -2 29 C-3.4370809 29.05422947 -4.87475462 29.09289723 -6.3125 29.125 C-7.51326172 29.15980469 -7.51326172 29.15980469 -8.73828125 29.1953125 C-11 29 -11 29 -14 27 C-14.56293157 23.3811542 -14.29061241 21.52068056 -12.5 18.3125 C-7.94787287 14.1017824 -3.13094262 12.79741233 3 13 C2.88557539 11.39504433 2.75805306 9.79101881 2.625 8.1875 C2.55539062 7.29417969 2.48578125 6.40085937 2.4140625 5.48046875 C2.13354964 2.75601501 2.13354964 2.75601501 0 0 Z " fill="#1E5195" transform="translate(794,779)"/>
<path d="M0 0 C0.66 0.66 1.32 1.32 2 2 C1.0409375 2.1546875 1.0409375 2.1546875 0.0625 2.3125 C-0.618125 2.539375 -1.29875 2.76625 -2 3 C-2.33 3.99 -2.66 4.98 -3 6 C-1.99839844 5.96519531 -0.99679687 5.93039062 0.03515625 5.89453125 C13.45551306 5.56769856 13.45551306 5.56769856 19 9 C20.44430855 11.88861709 20.37688506 13.79647701 20 17 C17.4213422 20.41292944 15.86470646 21.78790219 11.6875 22.8125 C10.800625 22.874375 9.91375 22.93625 9 23 C9.639375 22.46375 10.27875 21.9275 10.9375 21.375 C13.5785433 18.75167859 13.5785433 18.75167859 14 13 C8.72 12.67 3.44 12.34 -2 12 C-0.93912798 18.30025984 -0.93912798 18.30025984 3 23 C0.04101995 22.86237302 -2.20795996 22.67947621 -4.51171875 20.703125 C-6.82202051 18.02873556 -8 16.60122522 -8 13 C-7.34 12.34 -6.68 11.68 -6 11 C-6.33 10.67 -6.66 10.34 -7 10 C-7.3125 7.125 -7.3125 7.125 -7 4 C-4.73599988 1.73599988 -3.05224368 1.01741456 0 0 Z " fill="#1B61A2" transform="translate(761,799)"/>
<path d="M0 0 C0.01981934 1.22630127 0.03963867 2.45260254 0.06005859 3.71606445 C0.13607619 8.26168508 0.22479947 12.80698399 0.31738281 17.35229492 C0.35568847 19.32032931 0.39053855 21.2884341 0.421875 23.2565918 C0.46749111 26.08407772 0.52549098 28.91107834 0.5859375 31.73828125 C0.59748871 32.61962234 0.60903992 33.50096344 0.62094116 34.40901184 C0.64081085 35.22963608 0.66068054 36.05026031 0.68115234 36.89575195 C0.69447601 37.61745071 0.70779968 38.33914948 0.7215271 39.0827179 C0.90726155 41.32601629 0.90726155 41.32601629 3 44 C-0.96 44 -4.92 44 -9 44 C-8.34 43.01 -7.68 42.02 -7 41 C-6.81666847 38.49268801 -6.7436964 36.09953139 -6.76953125 33.59375 C-6.76998947 32.87264038 -6.77044769 32.15153076 -6.7709198 31.40856934 C-6.77393788 29.88548129 -6.78181093 28.36239621 -6.79418945 26.83935547 C-6.81243208 24.50867774 -6.81469914 22.1783979 -6.81445312 19.84765625 C-6.81936921 18.36718407 -6.82519792 16.88671457 -6.83203125 15.40625 C-6.83314407 14.7093103 -6.8342569 14.01237061 -6.83540344 13.29431152 C-6.86518903 10.25604025 -7.03124524 7.90626427 -8 5 C-6.8562364 4.16382818 -5.70992861 3.33113541 -4.5625 2.5 C-3.92441406 2.0359375 -3.28632812 1.571875 -2.62890625 1.09375 C-1 0 -1 0 0 0 Z " fill="#234F9B" transform="translate(817,764)"/>
<path d="M0 0 C0.14288264 5.78408689 0.28528698 11.56818529 0.42724609 17.35229492 C0.47561677 19.32039713 0.52411865 21.28849611 0.57275391 23.2565918 C0.64259704 26.08381326 0.71196989 28.91104594 0.78125 31.73828125 C0.80312378 32.61962234 0.82499756 33.50096344 0.84753418 34.40901184 C0.86755493 35.22963608 0.88757568 36.05026031 0.90820312 36.89575195 C0.92596802 37.61745071 0.94373291 38.33914948 0.96203613 39.0827179 C0.99448624 40.72153954 1 42.36085712 1 44 C-0.98 44 -2.96 44 -5 44 C-6.76780677 40.95831331 -7.22064205 38.87626028 -7.08984375 35.375 C-7.05987305 34.06789063 -7.05987305 34.06789063 -7.02929688 32.734375 C-6.96809442 30.91132317 -6.90298936 29.08839817 -6.83398438 27.265625 C-6.81529297 26.39421875 -6.79660156 25.5228125 -6.77734375 24.625 C-6.74890381 23.83351563 -6.72046387 23.04203125 -6.69116211 22.2265625 C-7.07633369 19.44967331 -8.18504908 18.08956399 -10 16 C-9.01 16.33 -8.02 16.66 -7 17 C-6.97287934 15.56260487 -6.95354933 14.12506137 -6.9375 12.6875 C-6.92589844 11.88699219 -6.91429687 11.08648438 -6.90234375 10.26171875 C-6.90342145 7.83138666 -6.90342145 7.83138666 -8 5 C-6.8562364 4.16382818 -5.70992861 3.33113541 -4.5625 2.5 C-3.92441406 2.0359375 -3.28632812 1.571875 -2.62890625 1.09375 C-1 0 -1 0 0 0 Z " fill="#205BA5" transform="translate(726,693)"/>
<path d="M0 0 C1.65 0 3.3 0 5 0 C5 10.23 5 20.46 5 31 C10.28 31 15.56 31 21 31 C21 32.65 21 34.3 21 36 C14.07 36 7.14 36 0 36 C0 24.12 0 12.24 0 0 Z " fill="#929294" transform="translate(504,630)"/>
<path d="M0 0 C1.65 0 3.3 0 5 0 C5 10.23 5 20.46 5 31 C10.28 31 15.56 31 21 31 C21 32.65 21 34.3 21 36 C14.07 36 7.14 36 0 36 C0 24.12 0 12.24 0 0 Z " fill="#929294" transform="translate(358,630)"/>
<path d="M0 0 C0.33 0.99 0.66 1.98 1 3 C1.804375 2.2575 1.804375 2.2575 2.625 1.5 C5.59358445 -0.37489544 7.55312427 -0.23501425 11 0 C11.33 1.65 11.66 3.3 12 5 C10.35 6.32 8.7 7.64 7 9 C7 7.02 7 5.04 7 3 C3.75016865 4.08784968 3.75016865 4.08784968 1 6 C0.90097893 7.53781591 0.86920433 9.08009444 0.8671875 10.62109375 C0.86589844 11.55630859 0.86460937 12.49152344 0.86328125 13.45507812 C0.86714844 14.43927734 0.87101563 15.42347656 0.875 16.4375 C0.87113281 17.41783203 0.86726562 18.39816406 0.86328125 19.40820312 C0.86521484 20.81295898 0.86521484 20.81295898 0.8671875 22.24609375 C0.86831543 23.10904053 0.86944336 23.9719873 0.87060547 24.86108398 C0.86278731 27.05256423 0.86278731 27.05256423 2 29 C-1.63 29 -5.26 29 -9 29 C-8.505 27.515 -8.505 27.515 -8 26 C-7.91941418 24.55396119 -7.89238015 23.10449827 -7.90234375 21.65625 C-7.90556641 20.82222656 -7.90878906 19.98820313 -7.91210938 19.12890625 C-7.92467773 17.82759766 -7.92467773 17.82759766 -7.9375 16.5 C-7.94201172 15.63246094 -7.94652344 14.76492188 -7.95117188 13.87109375 C-7.95988856 12.25975175 -7.9706578 10.64841863 -7.98413086 9.03710938 C-7.99721027 7.35811553 -8 5.67904479 -8 4 C-2.74285714 0 -2.74285714 0 0 0 Z " fill="#1E589D" transform="translate(593,779)"/>
<path d="M0 0 C1.22589844 0.01353516 1.22589844 0.01353516 2.4765625 0.02734375 C3.41628906 0.04474609 3.41628906 0.04474609 4.375 0.0625 C4.375 0.3925 4.375 0.7225 4.375 1.0625 C2.951875 1.43375 2.951875 1.43375 1.5 1.8125 C-1.60251101 2.73292127 -1.60251101 2.73292127 -2.80078125 4.671875 C-3.95379842 8.01617126 -3.92707563 11.03211488 -3.9375 14.5625 C-3.95425781 15.8721875 -3.97101562 17.181875 -3.98828125 18.53125 C-3.61534466 22.15635402 -3.33245677 23.65856977 -0.625 26.0625 C1.4238648 26.54307715 1.4238648 26.54307715 3.5625 26.3125 C5.4496875 26.18875 5.4496875 26.18875 7.375 26.0625 C5.7453437 28.01393557 4.80523084 28.96581891 2.2890625 29.53125 C-2.05438167 29.59054617 -4.00560119 29.53693313 -7.5625 26.8125 C-11.8903337 21.04205507 -12.6202799 16.21669018 -11.625 9.0625 C-9.03830206 3.00443419 -6.75531338 -0.09650448 0 0 Z " fill="#1B64A6" transform="translate(711.625,707.9375)"/>
<path d="M0 0 C2.86504006 1.71390789 5.49824192 3.57379066 6.64453125 6.83203125 C7.60215267 12.67246961 7.91131601 18.10986309 5.3125 23.5 C2.43084152 26.61530646 0.28063136 28.80888564 -4.09765625 29.17578125 C-6.06594893 29.1861955 -8.03421936 29.09995495 -10 29 C-9.4225 28.7525 -8.845 28.505 -8.25 28.25 C-4.85540263 26.36411257 -2.6773046 24.18528306 -0.75 20.8125 C0.67272671 15.47727482 0.5634769 10.75303924 -1.125 5.5 C-2.81342732 2.71110001 -2.81342732 2.71110001 -6.0625 2.1875 C-7.031875 2.125625 -8.00125 2.06375 -9 2 C-9.66 1.67 -10.32 1.34 -11 1 C-7.1993633 -1.58443296 -4.34103224 -1.12268075 0 0 Z " fill="#1C63A7" transform="translate(602,708)"/>
<path d="M0 0 C3.92888829 0.26787875 5.54876221 0.52437097 8.3125 3.4375 C10.40979829 6.6222863 11.13143668 8.38057263 11.31640625 12.1328125 C11.37924805 13.34130859 11.37924805 13.34130859 11.44335938 14.57421875 C11.48267578 15.41597656 11.52199219 16.25773438 11.5625 17.125 C11.60568359 17.97449219 11.64886719 18.82398438 11.69335938 19.69921875 C11.79954236 21.79928223 11.90028497 23.89961948 12 26 C12.66 25.67 13.32 25.34 14 25 C13 28 13 28 11 29 C5.57692308 29.46153846 5.57692308 29.46153846 3.125 27.5 C2.75375 27.005 2.3825 26.51 2 26 C2.33 25.67 2.66 25.34 3 25 C3.2794009 21.57056561 3.23181381 18.12696315 3.25 14.6875 C3.270625 13.72392578 3.29125 12.76035156 3.3125 11.76757812 C3.32023438 10.37249023 3.32023438 10.37249023 3.328125 8.94921875 C3.34214355 7.67050903 3.34214355 7.67050903 3.35644531 6.3659668 C2.92782083 3.52089843 1.87288984 2.14022478 0 0 Z " fill="#263581" transform="translate(633,779)"/>
<path d="M0 0 C0.66 0.33 1.32 0.66 2 1 C1.34 1.66 0.68 2.32 0 3 C-0.14125377 5.50876354 -0.14125377 5.50876354 1 8 C3.67148667 9.84375642 3.67148667 9.84375642 6.9375 11.1875 C12.86521739 13.86521739 12.86521739 13.86521739 15 16 C15.56060261 19.05675951 15.53696302 21.94093792 15 25 C12.75 27.625 12.75 27.625 10 29 C7.6875 28.75 7.6875 28.75 6 28 C7.32 27.67 8.64 27.34 10 27 C10.33397787 24.12586875 10.33397787 24.12586875 10 21 C7.73163463 18.44808896 5.083369 17.65167748 1.9375 16.5625 C-0.61182483 15.64151487 -1.96097691 15.03536468 -4 13.1875 C-5.38759753 10.1521304 -5.53948041 8.30431749 -5 5 C-2.5 2.125 -2.5 2.125 0 0 Z " fill="#28317F" transform="translate(856,779)"/>
<path d="M0 0 C0.99 0.33 1.98 0.66 3 1 C2.34 1.66 1.68 2.32 1 3 C0.81576921 5.49040276 0.81576921 5.49040276 2 8 C4.93378292 10.06586883 4.93378292 10.06586883 8.5 11.6875 C14.89497197 14.78994394 14.89497197 14.78994394 16 17 C16.57342233 23.19296117 16.57342233 23.19296117 14.3125 26.375 C11.80881813 28.13434402 10.01799494 28.66466723 7 29 C7.680625 28.443125 8.36125 27.88625 9.0625 27.3125 C11.26376135 25.18991306 11.26376135 25.18991306 10.9921875 22.55078125 C10.19416259 19.75671362 10.19416259 19.75671362 7.34765625 18.3046875 C6.26355469 17.83289063 5.17945313 17.36109375 4.0625 16.875 C-1.80979178 14.28531232 -1.80979178 14.28531232 -4 11 C-4.375 7.5625 -4.375 7.5625 -4 4 C-2 1.5625 -2 1.5625 0 0 Z " fill="#254490" transform="translate(479,779)"/>
<path d="M0 0 C0.99 0.33 1.98 0.66 3 1 C2.34 1.66 1.68 2.32 1 3 C0.35232207 5.57061311 0.35232207 5.57061311 0 8 C0.86625 8.268125 1.7325 8.53625 2.625 8.8125 C7.78857637 10.62931391 12.712237 12.44771277 16 17 C16.56921855 20.98452984 16.67149179 23.05493748 14.3125 26.375 C11.80881813 28.13434402 10.01799494 28.66466723 7 29 C7.680625 28.443125 8.36125 27.88625 9.0625 27.3125 C11.28500167 25.18103634 11.28500167 25.18103634 10.921875 22.484375 C10.24054177 19.83301279 10.24054177 19.83301279 7.85546875 18.77734375 C6.97503906 18.50019531 6.09460938 18.22304688 5.1875 17.9375 C-1.95033932 15.3539902 -1.95033932 15.3539902 -4 12 C-4.54022785 9.21840131 -4.59150996 6.77554674 -4 4 C-2 1.5 -2 1.5 0 0 Z " fill="#292E7E" transform="translate(654,779)"/>
<path d="M0 0 C0.99 0.33 1.98 0.66 3 1 C2.34 1.66 1.68 2.32 1 3 C0.81576921 5.49040276 0.81576921 5.49040276 2 8 C4.93378292 10.06586883 4.93378292 10.06586883 8.5 11.6875 C14.89497197 14.78994394 14.89497197 14.78994394 16 17 C16.57342233 23.19296117 16.57342233 23.19296117 14.3125 26.375 C11.80881813 28.13434402 10.01799494 28.66466723 7 29 C7.680625 28.443125 8.36125 27.88625 9.0625 27.3125 C11.26376135 25.18991306 11.26376135 25.18991306 10.9921875 22.55078125 C10.19416259 19.75671362 10.19416259 19.75671362 7.34765625 18.3046875 C6.26355469 17.83289063 5.17945313 17.36109375 4.0625 16.875 C-1.80979178 14.28531232 -1.80979178 14.28531232 -4 11 C-4.375 7.5625 -4.375 7.5625 -4 4 C-2 1.5625 -2 1.5625 0 0 Z " fill="#1E5EA5" transform="translate(532,779)"/>
<path d="M0 0 C0.01981934 0.77190674 0.03963867 1.54381348 0.06005859 2.33911133 C0.15521143 5.83058958 0.26493047 9.32146152 0.375 12.8125 C0.4059375 14.02744141 0.436875 15.24238281 0.46875 16.49414062 C0.50742187 17.65751953 0.54609375 18.82089844 0.5859375 20.01953125 C0.6173584 21.09307861 0.6487793 22.16662598 0.68115234 23.27270508 C0.81592307 26.2160765 0.81592307 26.2160765 3 29 C-0.63 29 -4.26 29 -8 29 C-7.505 27.515 -7.505 27.515 -7 26 C-6.91941418 24.55396119 -6.89238015 23.10449827 -6.90234375 21.65625 C-6.90556641 20.82222656 -6.90878906 19.98820313 -6.91210938 19.12890625 C-6.92467773 17.82759766 -6.92467773 17.82759766 -6.9375 16.5 C-6.94201172 15.63246094 -6.94652344 14.76492188 -6.95117188 13.87109375 C-6.95988856 12.25975175 -6.9706578 10.64841863 -6.98413086 9.03710938 C-6.99721027 7.35811553 -7 5.67904479 -7 4 C-2.65714286 0 -2.65714286 0 0 0 Z " fill="#244C98" transform="translate(615,779)"/>
<path d="M0 0 C1.65 0 3.3 0 5 0 C5 11.88 5 23.76 5 36 C3.35 36 1.7 36 0 36 C0 24.12 0 12.24 0 0 Z " fill="#8D8D8F" transform="translate(852,630)"/>
<path d="M0 0 C0.5775 0.226875 1.155 0.45375 1.75 0.6875 C1.275625 1.285625 0.80125 1.88375 0.3125 2.5 C-3.31874018 7.58373625 -2.72505667 13.69386838 -2.25 19.6875 C-0.92014431 23.1922765 -0.92014431 23.1922765 0.75 25.6875 C0.75 26.3475 0.75 27.0075 0.75 27.6875 C-3.17888829 27.41962125 -4.79876221 27.16312903 -7.5625 24.25 C-10.90699322 19.17132511 -10.86820987 14.68328885 -10.25 8.6875 C-8.18072771 4.54895543 -5.22166055 -0.72523063 0 0 Z " fill="#1D62A7" transform="translate(622.25,708.3125)"/>
<path d="M0 0 C0.5775 0.226875 1.155 0.45375 1.75 0.6875 C1.09 1.595 0.43 2.5025 -0.25 3.4375 C-3.18396788 8.56411292 -2.94211061 13.95173278 -2.25 19.6875 C-0.92014431 23.1922765 -0.92014431 23.1922765 0.75 25.6875 C0.75 26.3475 0.75 27.0075 0.75 27.6875 C-3.08952622 27.42571412 -4.79375615 27.14374385 -7.5625 24.375 C-10.60978429 19.52191762 -10.96319399 14.31489367 -10.25 8.6875 C-8.11471843 4.56945697 -5.23585114 -0.72720155 0 0 Z " fill="#234A94" transform="translate(741.25,708.3125)"/>
<path d="M0 0 C2.91619791 3.40365621 4.2238027 6.91412309 5.6875 11.125 C6.34298828 12.98511719 6.34298828 12.98511719 7.01171875 14.8828125 C8 18 8 18 8 20 C3.05 20 -1.9 20 -7 20 C-5.04068712 13.14240492 -2.75665244 6.57678502 0 0 Z " fill="#010204" transform="translate(561,701)"/>
<path d="M0 0 C2.08268593 -0.08126087 4.16628658 -0.13930839 6.25 -0.1875 C7.99023438 -0.23970703 7.99023438 -0.23970703 9.765625 -0.29296875 C13.22268407 0.02017066 14.51565563 0.65709108 17 3 C16.6875 5.875 16.6875 5.875 16 9 C11.99794291 11.66803806 8.70446246 11.82370552 4 11 C1.4375 8.875 1.4375 8.875 0 6 C-0.05648851 4.0007979 -0.06367961 1.99898597 0 0 Z " fill="#020206" transform="translate(650,739)"/>
<path d="M0 0 C2.83556803 2.83556803 3.77445029 6.30375868 5.125 10 C5.40214844 10.73734375 5.67929687 11.4746875 5.96484375 12.234375 C8 17.72829433 8 17.72829433 8 20 C3.05 20 -1.9 20 -7 20 C-5.22009119 12.9693602 -3.17243856 6.52201837 0 0 Z " fill="#010103" transform="translate(451,772)"/>
<path d="M0 0 C1.875 0.25 1.875 0.25 4 1 C6.64219529 5.18501561 6.40990874 9.20919156 6 14 C5.25 17 5.25 17 4 19 C2.0625 20 2.0625 20 0 20 C-1.9581636 18.47698387 -2.89113011 17.21773977 -4 15 C-4.54129128 9.98640045 -4.76641668 6.19752606 -2 1.875 C-1.34 1.25625 -0.68 0.6375 0 0 Z " fill="#010306" transform="translate(765,779)"/>
<path d="M0 0 C9.04761905 -0.36190476 9.04761905 -0.36190476 13.125 1.1875 C15 3 15 3 15.5625 5.5 C15 8 15 8 13.32421875 9.64453125 C9.13810675 12.08584363 4.73960699 11.16927168 0 11 C0 7.37 0 3.74 0 0 Z " fill="#030303" transform="translate(537,650)"/>
<path d="M0 0 C9.57142857 -0.42857143 9.57142857 -0.42857143 14 3 C13.75 5.375 13.75 5.375 13 8 C8.81484735 10.76519015 4.8535565 10.14275166 0 10 C0 6.7 0 3.4 0 0 Z " fill="#020202" transform="translate(537,635)"/>
<path d="M0 0 C-3.22515763 1.73662334 -6.51329166 2.8905928 -10 4 C-11.04214691 8.61507774 -11.04214691 8.61507774 -10 13 C-8.10466658 13.46523063 -8.10466658 13.46523063 -5.9375 13.625 C-4.638125 13.74875 -3.33875 13.8725 -2 14 C-4 16 -4 16 -6.53125 16.265625 C-7.5109375 16.26046875 -8.490625 16.2553125 -9.5 16.25 C-10.4796875 16.25515625 -11.459375 16.2603125 -12.46875 16.265625 C-15 16 -15 16 -17 14 C-17.57285397 9.6626771 -17.54765252 7.72483422 -14.875 4.1875 C-10.05898441 0.52314031 -5.98414552 -0.28495931 0 0 Z " fill="#203E81" transform="translate(689,721)"/>
<path d="M0 0 C4.16210575 0.19358631 5.74772093 0.76965824 8.875 3.625 C11 7 11 7 11 14 C4.73 14 -1.54 14 -8 14 C-8 13.67 -8 13.34 -8 13 C-3.71 13 0.58 13 5 13 C4.690625 11.576875 4.38125 10.15375 4.0625 8.6875 C3.88847656 7.88699219 3.71445312 7.08648438 3.53515625 6.26171875 C3.00113841 3.854599 3.00113841 3.854599 2 1 C1.34 0.67 0.68 0.34 0 0 Z " fill="#243980" transform="translate(836,779)"/>
<path d="M0 0 C-0.05800781 0.60328125 -0.11601563 1.2065625 -0.17578125 1.828125 C-0.31553182 4.30370659 -0.35932638 6.5438985 0 9 C2.3183856 11.60910963 2.3183856 11.60910963 5 13 C3.5629191 13.05422947 2.12524538 13.09289723 0.6875 13.125 C-0.11300781 13.14820313 -0.91351562 13.17140625 -1.73828125 13.1953125 C-4 13 -4 13 -7 11 C-7.60065303 7.13865912 -7.28529173 5.45253171 -5.1875 2.125 C-3 0 -3 0 0 0 Z " fill="#1E5EA3" transform="translate(787,795)"/>
<path d="M0 0 C3.05160064 0.07096746 5.22484499 0.2749196 7.51171875 2.4140625 C10.47970314 6.27499348 11.60899555 9.00623649 11 14 C9.02 14 7.04 14 5 14 C4.89042969 13.40832031 4.78085937 12.81664062 4.66796875 12.20703125 C3.74085597 7.58654237 2.77648665 3.9123221 0 0 Z " fill="#20549C" transform="translate(513,779)"/>
<path d="M0 0 C0.66 0.33 1.32 0.66 2 1 C1.01 2.485 1.01 2.485 0 4 C0.31730524 7.63939932 0.31730524 7.63939932 1 11 C3.475 11.99 3.475 11.99 6 13 C6 13.33 6 13.66 6 14 C4.37536158 14.05395478 2.75021459 14.09277195 1.125 14.125 C0.22007812 14.14820313 -0.68484375 14.17140625 -1.6171875 14.1953125 C-4 14 -4 14 -6 12 C-6.5 8.6875 -6.5 8.6875 -6 5 C-4.17823607 2.8710782 -2.34031936 1.60896956 0 0 Z " fill="#254391" transform="translate(626,794)"/>
<path d="M0 0 C3.7606782 0.2148959 4.97108473 0.97239906 7.75 3.625 C10.26943042 6.87893522 10.75371513 9.89525218 11 14 C9.02 14 7.04 14 5 14 C4.80664062 13.32453125 4.61328125 12.6490625 4.4140625 11.953125 C4.15367187 11.06109375 3.89328125 10.1690625 3.625 9.25 C3.36976563 8.36828125 3.11453125 7.4865625 2.8515625 6.578125 C2.0790066 4.23919428 1.16374324 2.16557438 0 0 Z " fill="#1E62A8" transform="translate(740,779)"/>
<path d="M0 0 C1.33978732 4.70851773 0.0959099 6.64050741 -2 11 C2.95 11 7.9 11 13 11 C13 11.33 13 11.66 13 12 C7.72 12 2.44 12 -3 12 C-3.33 13.65 -3.66 15.3 -4 17 C-4.36770256 18.39777342 -4.74220028 19.79378551 -5.125 21.1875 C-6.37492028 24.78012418 -6.37492028 24.78012418 -5 27 C-6.98 27 -8.96 27 -11 27 C-10.2265625 25.329375 -10.2265625 25.329375 -9.4375 23.625 C-5.98261008 15.87956087 -3.03960378 7.91492331 0 0 Z " fill="#202564" transform="translate(446,781)"/>
<path d="M0 0 C1 3 1 3 0 9 C-9.9 9 -19.8 9 -30 9 C-28 7 -28 7 -26.1081543 6.82055664 C-24.9776062 6.86490845 -24.9776062 6.86490845 -23.82421875 6.91015625 C-22.99599609 6.93013672 -22.16777344 6.95011719 -21.31445312 6.97070312 C-19.57471382 7.03149699 -17.83511751 7.09654391 -16.09570312 7.16601562 C-9.68153528 7.3100984 -6.43839037 6.30658548 -1.6875 1.8125 C-1.130625 1.214375 -0.57375 0.61625 0 0 Z " fill="#183266" transform="translate(721,799)"/>
<path d="M0 0 C0.625 1.75 0.625 1.75 1 4 C0.34 5.32 -0.32 6.64 -1 8 C6.92 7.505 6.92 7.505 15 7 C15 7.66 15 8.32 15 9 C9.39 9 3.78 9 -2 9 C-3.24591691 14.13940726 -4.27288504 18.6787418 -4 24 C-5.98 24 -7.96 24 -10 24 C-9.46375 23.01 -8.9275 22.02 -8.375 21 C-4.98209718 14.26301311 -2.57680357 7.07762048 0 0 Z " fill="#202D6D" transform="translate(555,713)"/>
<path d="M0 0 C0.99 1.485 0.99 1.485 2 3 C2.53625 2.505 3.0725 2.01 3.625 1.5 C6.59358445 -0.37489544 8.55312427 -0.23501425 12 0 C12.33 1.65 12.66 3.3 13 5 C11.35 6.32 9.7 7.64 8 9 C8 7.02 8 5.04 8 3 C6.8553125 3.495 6.8553125 3.495 5.6875 4 C3 5 3 5 0 5 C0 3.35 0 1.7 0 0 Z " fill="#1D4A8B" transform="translate(592,779)"/>
<path d="M0 0 C0.8353125 0.37125 0.8353125 0.37125 1.6875 0.75 C0.18610488 4.95390632 -2.48525043 6.64110738 -6.3125 8.75 C-7.3025 8.42 -8.2925 8.09 -9.3125 7.75 C-7.69865111 3.642021 -4.79776509 -0.51867731 0 0 Z " fill="#8D8D8F" transform="translate(859.3125,618.25)"/>
<path d="M0 0 C-2.76223278 2.76223278 -5.20706617 2.57856291 -9 3 C-9.33 4.98 -9.66 6.96 -10 9 C-11.32 7.68 -12.64 6.36 -14 5 C-9.48881925 0.17770333 -6.5260927 -0.12313382 0 0 Z " fill="#1B356E" transform="translate(687,707)"/>
<path d="M0 0 C1.09658936 3.28976808 0.79953138 4.71303767 0 8 C-2.64 8 -5.28 8 -8 8 C-5.33333333 5.33333333 -2.66666667 2.66666667 0 0 Z " fill="#214F97" transform="translate(721,799)"/>
<path d="M0 0 C1.65 0.33 3.3 0.66 5 1 C1.88983545 4.28788824 -1.01618925 6.83735988 -5 9 C-3.7508258 5.54074837 -2.32472205 2.85306797 0 0 Z " fill="#204589" transform="translate(612,766)"/>
<path d="M0 0 C0.66 0.66 1.32 1.32 2 2 C1.67 2.86625 1.34 3.7325 1 4.625 C0.01268659 7.95718275 -0.16420974 10.55159538 0 14 C-1.98 14 -3.96 14 -6 14 C-5.73445312 13.49210938 -5.46890625 12.98421875 -5.1953125 12.4609375 C-3.10022511 8.37781098 -1.32380814 4.4126938 0 0 Z " fill="#202462" transform="translate(551,723)"/>
<path d="M0 0 C1.65 0.33 3.3 0.66 5 1 C4.67 2.65 4.34 4.3 4 6 C2.35 5.67 0.7 5.34 -1 5 C-0.67 3.35 -0.34 1.7 0 0 Z " fill="#8F8F91" transform="translate(1051,661)"/>
<path d="M0 0 C2.16070464 2.16070464 3.43303362 4.38838937 5 7 C5.66 7.66 6.32 8.32 7 9 C2.68607774 8.5206753 0.83430453 7.2542015 -2 4 C-1.34 2.68 -0.68 1.36 0 0 Z " fill="#24296F" transform="translate(650,799)"/>
<path d="M0 0 C0.99 0.33 1.98 0.66 3 1 C2.319375 1.61875 2.319375 1.61875 1.625 2.25 C-0.05950374 4.06408095 -0.99265971 5.75285627 -2 8 C-2.99 6.35 -3.98 4.7 -5 3 C-2.6875 1.4375 -2.6875 1.4375 0 0 Z " fill="#213C81" transform="translate(626,779)"/>
<path d="M0 0 C0.66 0 1.32 0 2 0 C2.433125 1.11375 2.86625 2.2275 3.3125 3.375 C4.69911119 7.17512334 4.69911119 7.17512334 8 9 C4.84526281 8.64947365 3.1766466 8.13480924 0.625 6.1875 C-1 4 -1 4 -0.75 1.75 C-0.5025 1.1725 -0.255 0.595 0 0 Z " fill="#233074" transform="translate(851,799)"/>
<path d="M0 0 C3.79588866 0.54226981 5.47211993 2.20127563 8 5 C7.34 6.32 6.68 7.64 6 9 C4 6 4 6 3.5625 3.875 C3.376875 3.25625 3.19125 2.6375 3 2 C2.01 1.67 1.02 1.34 0 1 C0 0.67 0 0.34 0 0 Z " fill="#25286F" transform="translate(863,779)"/>
<path d="M0 0 C2.16070464 2.16070464 3.43303362 4.38838937 5 7 C5.66 7.66 6.32 8.32 7 9 C4.32142828 8.63803085 2.39019086 8.26012724 0.125 6.75 C-1 5 -1 5 -0.6875 2.3125 C-0.460625 1.549375 -0.23375 0.78625 0 0 Z " fill="#1D5192" transform="translate(528,799)"/>
<path d="M0 0 C2.16070464 2.16070464 3.43303362 4.38838937 5 7 C5.66 7.66 6.32 8.32 7 9 C4.32142828 8.63803085 2.39019086 8.26012724 0.125 6.75 C-1 5 -1 5 -0.6875 2.3125 C-0.460625 1.549375 -0.23375 0.78625 0 0 Z " fill="#223A7F" transform="translate(475,799)"/>
<path d="M0 0 C-0.61875 0.4125 -1.2375 0.825 -1.875 1.25 C-4.06768281 3.05573879 -4.92788417 4.4090534 -6 7 C-8 4 -8 4 -8 1 C-4.93251126 -0.86240388 -3.40254489 -1.2151946 0 0 Z " fill="#1C599B" transform="translate(790,780)"/>
<path d="M0 0 C2.91517292 1.07401108 4.77810176 1.77810176 7 4 C6.625 6.625 6.625 6.625 6 9 C3.20294175 7.60147088 3.09085007 5.86348142 2 3 C1.34 2.01 0.68 1.02 0 0 Z " fill="#1B5796" transform="translate(540,779)"/>
<path d="M0 0 C2.91517292 1.07401108 4.77810176 1.77810176 7 4 C6.625 6.125 6.625 6.125 6 8 C3.38472619 5.63379989 1.73559438 3.057952 0 0 Z " fill="#262E78" transform="translate(662,779)"/>
<path d="M0 0 C2.91517292 1.07401108 4.77810176 1.77810176 7 4 C6.625 6.125 6.625 6.125 6 8 C3.87961365 5.38485683 1.86908256 2.80362384 0 0 Z " fill="#22438A" transform="translate(487,779)"/>
<path d="M0 0 C0.99 0.33 1.98 0.66 3 1 C1.1875 3.5 1.1875 3.5 -1 6 C-1.99 6 -2.98 6 -4 6 C-2.84826645 3.53199953 -1.95216435 1.95216435 0 0 Z " fill="#1C5191" transform="translate(532,779)"/>
<path d="M0 0 C0.99 0.33 1.98 0.66 3 1 C1.1875 3.5 1.1875 3.5 -1 6 C-1.99 6 -2.98 6 -4 6 C-2.84826645 3.53199953 -1.95216435 1.95216435 0 0 Z " fill="#223A7E" transform="translate(479,779)"/>
</svg>
